<?xml version="1.0" encoding="UTF-8" standalone="no"?>
<!-- Created with Inkscape (http://www.inkscape.org/) -->
<svg id="svg2" xmlns:rdf="http://www.w3.org/1999/02/22-rdf-syntax-ns#" xmlns="http://www.w3.org/2000/svg" height="48" width="48" version="1.0" xmlns:cc="http://web.resource.org/cc/" xmlns:xlink="http://www.w3.org/1999/xlink" xmlns:dc="http://purl.org/dc/elements/1.1/">
 <defs id="defs4">
  <linearGradient id="linearGradient3198">
   <stop id="stop3200" offset="0"/>
   <stop id="stop3202" stop-opacity="0" offset="1"/>
  </linearGradient>
  <linearGradient id="linearGradient2892">
   <stop id="stop2894" stop-color="#fff" offset="0"/>
   <stop id="stop2896" stop-color="#fff" stop-opacity="0" offset="1"/>
  </linearGradient>
  <linearGradient id="linearGradient2903">
   <stop id="stop2905" stop-color="#888a85" offset="0"/>
   <stop id="stop2907" stop-color="#d3d7cf" offset="1"/>
  </linearGradient>
  <linearGradient id="linearGradient2895">
   <stop id="stop2897" stop-color="#d3d7cf" offset="0"/>
   <stop id="stop2899" stop-color="#888a85" offset="1"/>
  </linearGradient>
  <linearGradient id="linearGradient3112" y2="11.424" xlink:href="#linearGradient2903" gradientUnits="userSpaceOnUse" x2="12.641" gradientTransform="matrix(.96593 -.25882 .25882 .96593 7.2816 .75564)" y1="35.311" x1="22.965"/>
  <linearGradient id="linearGradient3114" y2="52.505" xlink:href="#linearGradient2892" gradientUnits="userSpaceOnUse" x2="17.028" gradientTransform="matrix(.96593 -.25882 .25882 .96593 7.2816 .75564)" y1="7.8708" x1="17.413"/>
  <radialGradient id="radialGradient3116" xlink:href="#linearGradient3198" gradientUnits="userSpaceOnUse" cy="12" cx="31" gradientTransform="matrix(.97747 -.26191 .26191 .97747 -2.4444 8.3897)" r="11.125"/>
  <linearGradient id="linearGradient3118" y2="3.4233" xlink:href="#linearGradient2895" gradientUnits="userSpaceOnUse" x2="10.211" gradientTransform="matrix(.90911 -.24359 .24359 .90911 8.6768 1.4171)" y1="21.877" x1="21.788"/>
  <linearGradient id="linearGradient3120" y2="30.758" xlink:href="#linearGradient2892" gradientUnits="userSpaceOnUse" x2="32.567" gradientTransform="matrix(.96593 -.25882 .25882 .96593 -4.1168 6.7297)" y1="13.971" x1="16.488"/>
  <linearGradient id="linearGradient3122" y2="5.1875" xlink:href="#linearGradient2892" gradientUnits="userSpaceOnUse" x2="17.732" gradientTransform="matrix(.96593 -.25882 .25882 .96593 -4.1168 6.7296)" y1="22.795" x1="28.357"/>
  <linearGradient id="linearGradient3171" y2="44.062" xlink:href="#linearGradient2892" gradientUnits="userSpaceOnUse" x2="30.438" y1="31.062" x1="14.375"/>
  <linearGradient id="linearGradient3177" y2="30.901" gradientUnits="userSpaceOnUse" x2="17.449" y1="36.825" x1="20.807">
   <stop id="stop3073" stop-color="#eeeeec" offset="0"/>
   <stop id="stop3075" stop-color="#eeeeec" stop-opacity="0" offset="1"/>
  </linearGradient>
  <linearGradient id="linearGradient3179" y2="31.111" gradientUnits="userSpaceOnUse" x2="23.032" y1="36.68" x1="17.66">
   <stop id="stop3067" stop-color="#eeeeec" offset="0"/>
   <stop id="stop3069" stop-color="#eeeeec" stop-opacity="0" offset="1"/>
  </linearGradient>
  <linearGradient id="linearGradient3184" y2="37.128" xlink:href="#linearGradient2903" gradientUnits="userSpaceOnUse" x2="22.053" gradientTransform="translate(-3,1)" y1="30.676" x1="16.794"/>
  <radialGradient id="radialGradient3187" gradientUnits="userSpaceOnUse" cy="34.5" cx="42.5" gradientTransform="matrix(1 0 0 .99640 -26 1.1241)" r="8.6875">
   <stop id="stop3027" offset="0"/>
   <stop id="stop3029" stop-opacity="0" offset="1"/>
  </radialGradient>
  <linearGradient id="linearGradient3191" y2="42.564" xlink:href="#linearGradient2895" gradientUnits="userSpaceOnUse" x2="26.737" gradientTransform="translate(-3,1)" y1="29.88" x1="14.496"/>
  <radialGradient id="radialGradient3204" xlink:href="#linearGradient3198" gradientUnits="userSpaceOnUse" cy="34.656" cx="15.312" gradientTransform="matrix(1 0 0 1.0033 0 -0.114)" r="9.5"/>
 </defs>
 <metadata id="metadata7">
  <rdf:RDF>
   <cc:Work rdf:about="">
    <dc:format>image/svg+xml</dc:format>
    <dc:type rdf:resource="http://purl.org/dc/dcmitype/StillImage"/>
    <dc:creator>
     <cc:Agent>
      <dc:title>Lapo Calamandrei</dc:title>
     </cc:Agent>
    </dc:creator>
    <dc:title>System Run</dc:title>
    <cc:license rdf:resource="http://creativecommons.org/licenses/GPL/2.0/"/>
    <dc:subject>
     <rdf:Bag>
      <rdf:li>run</rdf:li>
      <rdf:li>launch</rdf:li>
      <rdf:li>exec</rdf:li>
     </rdf:Bag>
    </dc:subject>
   </cc:Work>
   <cc:License rdf:about="http://creativecommons.org/licenses/GPL/2.0/">
    <cc:permits rdf:resource="http://web.resource.org/cc/Reproduction"/>
    <cc:permits rdf:resource="http://web.resource.org/cc/Distribution"/>
    <cc:requires rdf:resource="http://web.resource.org/cc/Notice"/>
    <cc:permits rdf:resource="http://web.resource.org/cc/DerivativeWorks"/>
    <cc:requires rdf:resource="http://web.resource.org/cc/ShareAlike"/>
    <cc:requires rdf:resource="http://web.resource.org/cc/SourceCode"/>
   </cc:License>
  </rdf:RDF>
 </metadata>
 <g id="layer1">
  <path id="path3110" opacity=".49020" d="m24.812 34.656a9.5 9.5312 0 1 1 -19 0 9.5 9.5312 0 1 1 19 0z" transform="matrix(1.3882 0 0 .49836 -4.7562 25.479)" fill="url(#radialGradient3204)"/>
  <path id="path3206" opacity=".24706" d="m24.812 34.656a9.5 9.5312 0 1 1 -19 0 9.5 9.5312 0 1 1 19 0z" transform="matrix(1.4737 0 0 .65574 10.434 15.525)" fill="url(#radialGradient3204)"/>
  <g id="g2904" transform="matrix(.96593 .25882 -.25882 .96593 6.1621 8.3855)">
   <path id="path2779" d="m31 0.5c-0.562 0-1.116 0.047-1.656 0.125l-0.219 3.0938c-0.96 0.2157-1.85 0.5835-2.656 1.0937l-2.344-2.0313c-1.125 0.7188-1.625 1.2188-2.344 2.3438l2.031 2.3438c-0.51 0.8067-0.878 1.6966-1.093 2.6562l-3.094 0.219c-0.078 0.54-0.125 1.094-0.125 1.656s0.047 1.116 0.125 1.656l3.094 0.219c0.215 0.96 0.583 1.85 1.093 2.656l-2.031 2.344c0.719 1.125 1.219 1.625 2.344 2.344l2.344-2.031c0.806 0.51 1.696 0.878 2.656 1.093l0.219 3.094c0.54 0.078 1.094 0.125 1.656 0.125s1.116-0.047 1.656-0.125l0.219-3.094c0.96-0.215 1.85-0.583 2.656-1.093l2.344 2.031c1.125-0.719 1.625-1.219 2.344-2.344l-2.031-2.344c0.51-0.806 0.878-1.696 1.093-2.656l3.094-0.219c0.078-0.54 0.125-1.094 0.125-1.656s-0.047-1.116-0.125-1.656l-3.094-0.219c-0.215-0.9596-0.583-1.8495-1.093-2.6562l2.031-2.3438c-0.65-1.1077-1.219-1.625-2.344-2.3438l-2.344 2.0313c-0.806-0.5102-1.696-0.878-2.656-1.0937l-0.219-3.0938c-0.54-0.078-1.094-0.125-1.656-0.125zm0 9c1.38 0 2.5 1.12 2.5 2.5s-1.12 2.5-2.5 2.5-2.5-1.12-2.5-2.5 1.12-2.5 2.5-2.5z" stroke="#2e3436" stroke-linecap="square" stroke-width="1.0054" fill="url(#linearGradient3112)"/>
   <path id="path2819" d="m31 1.4375c-0.26 0-0.522 0.042-0.781 0.0625l-0.219 3.0625c-1.317 0.1747-2.522 0.702-3.531 1.4688l-2.313-1.9688c-0.391 0.3376-0.756 0.7027-1.093 1.0938l1.968 2.3125c-0.766 1.0095-1.294 2.2142-1.468 3.5312l-3.063 0.219c-0.021 0.259-0.062 0.521-0.062 0.781s0.041 0.522 0.062 0.781l3.063 0.219c0.174 1.317 0.702 2.522 1.468 3.531l-1.968 2.313c0.337 0.391 0.702 0.756 1.093 1.094l2.313-1.969c1.009 0.766 2.214 1.294 3.531 1.469l0.219 3.062c0.259 0.021 0.521 0.063 0.781 0.063s0.522-0.042 0.781-0.063l0.219-3.062c1.317-0.175 2.522-0.703 3.531-1.469l2.313 1.969c0.391-0.338 0.756-0.703 1.094-1.094l-1.969-2.313c0.766-1.009 1.294-2.214 1.469-3.531l3.062-0.219c0.021-0.259 0.063-0.521 0.063-0.781s-0.042-0.522-0.063-0.781l-3.062-0.219c-0.175-1.317-0.703-2.5217-1.469-3.5312l1.969-2.3125c-0.338-0.3911-0.703-0.7562-1.094-1.0938l-2.313 1.9688c-1.009-0.7668-2.214-1.2941-3.531-1.4688l-0.219-3.0625c-0.259-0.0205-0.521-0.0625-0.781-0.0625z" stroke="url(#linearGradient3114)" stroke-linecap="square" stroke-width="1.1333" fill="none"/>
   <path id="path2875" opacity=".8" d="m31 0.875c-0.321 0-0.584 0.04438-0.812 0.0625l-0.5 0.03125-0.032 0.50005-0.187 2.6562c-1.06 0.2091-2.042 0.6405-2.907 1.2188l-2.406-2.0313-1.844 1.8437 2.032 2.4063c-0.578 0.8646-1.01 1.8462-1.219 2.9065l-2.656 0.187-0.5 0.032-0.031 0.5c-0.019 0.228-0.063 0.491-0.063 0.812s0.044 0.584 0.063 0.812l0.031 0.5 0.5 0.032 2.656 0.187c0.209 1.06 0.641 2.042 1.219 2.907l-1.719 2.031-0.313 0.375 0.313 0.375c0.356 0.412 0.744 0.8 1.156 1.156l0.375 0.313 0.375-0.313 2.031-1.719c0.865 0.578 1.847 1.01 2.907 1.219l0.187 2.656 0.032 0.5 0.5 0.031c0.228 0.019 0.491 0.063 0.812 0.063s0.584-0.044 0.812-0.063l0.5-0.031 0.032-0.5 0.187-2.656c1.06-0.209 2.042-0.641 2.907-1.219l2.031 1.719 0.375 0.313 0.375-0.313c0.412-0.356 0.8-0.744 1.156-1.156l0.313-0.375-0.313-0.375-1.719-2.031c0.578-0.865 1.01-1.847 1.219-2.907l2.656-0.187 0.5-0.032 0.031-0.5c0.019-0.228 0.063-0.491 0.063-0.812s-0.044-0.584-0.063-0.812l-0.031-0.5-0.5-0.032-2.656-0.187c-0.209-1.0603-0.641-2.0419-1.219-2.9065l1.719-2.0313 0.313-0.375-0.313-0.375c-0.356-0.4119-0.744-0.8005-1.156-1.1562l-0.375-0.3125-0.375 0.3125-2.031 1.7188c-0.865-0.5783-1.847-1.0097-2.907-1.2188l-0.187-2.6562-0.032-0.50005-0.5-0.03125c-0.228-0.01812-0.491-0.0625-0.812-0.0625zm0 7.625c1.932 0 3.5 1.568 3.5 3.5s-1.568 3.5-3.5 3.5-3.5-1.568-3.5-3.5 1.568-3.5 3.5-3.5z" fill="url(#radialGradient3116)"/>
   <path id="path2867" fill="url(#linearGradient3118)" d="m31 4c-4.416 0-8 3.584-8 8s3.584 8 8 8 8-3.584 8-8-3.584-8-8-8zm0 5c1.656 0 3 1.344 3 3s-1.344 3-3 3-3-1.344-3-3 1.344-3 3-3z"/>
   <path id="path2849" d="m32 19a8.5 8.5 0 1 1 -17 0 8.5 8.5 0 1 1 17 0z" transform="matrix(.88235 -.0000010264 .0000010264 .88235 10.265 -4.7647)" stroke="url(#linearGradient3120)" stroke-linecap="square" stroke-width="1.1333" fill="none"/>
   <path id="path2835" d="m32 19a8.5 8.5 0 1 1 -17 0 8.5 8.5 0 1 1 17 0z" transform="matrix(.41176 -4.79e-7 4.79e-7 .41176 21.324 4.1765)" stroke="url(#linearGradient3122)" stroke-linecap="square" stroke-width="2.4286" fill="none"/>
  </g>
  <g id="g2924" transform="matrix(.96593 .25882 -.25882 .96593 -6.8379 -6.6145)">
   <path id="path2926" d="m31 0.5c-0.562 0-1.116 0.047-1.656 0.125l-0.219 3.0938c-0.96 0.2157-1.85 0.5835-2.656 1.0937l-2.344-2.0313c-1.125 0.7188-1.625 1.2188-2.344 2.3438l2.031 2.3438c-0.51 0.8067-0.878 1.6966-1.093 2.6562l-3.094 0.219c-0.078 0.54-0.125 1.094-0.125 1.656s0.047 1.116 0.125 1.656l3.094 0.219c0.215 0.96 0.583 1.85 1.093 2.656l-2.031 2.344c0.719 1.125 1.219 1.625 2.344 2.344l2.344-2.031c0.806 0.51 1.696 0.878 2.656 1.093l0.219 3.094c0.54 0.078 1.094 0.125 1.656 0.125s1.116-0.047 1.656-0.125l0.219-3.094c0.96-0.215 1.85-0.583 2.656-1.093l2.344 2.031c1.125-0.719 1.625-1.219 2.344-2.344l-2.031-2.344c0.51-0.806 0.878-1.696 1.093-2.656l3.094-0.219c0.078-0.54 0.125-1.094 0.125-1.656s-0.047-1.116-0.125-1.656l-3.094-0.219c-0.215-0.9596-0.583-1.8495-1.093-2.6562l2.031-2.3438c-0.65-1.1077-1.219-1.625-2.344-2.3438l-2.344 2.0313c-0.806-0.5102-1.696-0.878-2.656-1.0937l-0.219-3.0938c-0.54-0.078-1.094-0.125-1.656-0.125zm0 9c1.38 0 2.5 1.12 2.5 2.5s-1.12 2.5-2.5 2.5-2.5-1.12-2.5-2.5 1.12-2.5 2.5-2.5z" stroke="#2e3436" stroke-linecap="square" stroke-width="1.0054" fill="url(#linearGradient3112)"/>
   <path id="path2928" d="m31 1.4375c-0.26 0-0.522 0.042-0.781 0.0625l-0.219 3.0625c-1.317 0.1747-2.522 0.702-3.531 1.4688l-2.313-1.9688c-0.391 0.3376-0.756 0.7027-1.093 1.0938l1.968 2.3125c-0.766 1.0095-1.294 2.2142-1.468 3.5312l-3.063 0.219c-0.021 0.259-0.062 0.521-0.062 0.781s0.041 0.522 0.062 0.781l3.063 0.219c0.174 1.317 0.702 2.522 1.468 3.531l-1.968 2.313c0.337 0.391 0.702 0.756 1.093 1.094l2.313-1.969c1.009 0.766 2.214 1.294 3.531 1.469l0.219 3.062c0.259 0.021 0.521 0.063 0.781 0.063s0.522-0.042 0.781-0.063l0.219-3.062c1.317-0.175 2.522-0.703 3.531-1.469l2.313 1.969c0.391-0.338 0.756-0.703 1.094-1.094l-1.969-2.313c0.766-1.009 1.294-2.214 1.469-3.531l3.062-0.219c0.021-0.259 0.063-0.521 0.063-0.781s-0.042-0.522-0.063-0.781l-3.062-0.219c-0.175-1.317-0.703-2.5217-1.469-3.5312l1.969-2.3125c-0.338-0.3911-0.703-0.7562-1.094-1.0938l-2.313 1.9688c-1.009-0.7668-2.214-1.2941-3.531-1.4688l-0.219-3.0625c-0.259-0.0205-0.521-0.0625-0.781-0.0625z" stroke="url(#linearGradient3114)" stroke-linecap="square" stroke-width="1.1333" fill="none"/>
   <path id="path2930" opacity=".8" d="m31 0.875c-0.321 0-0.584 0.04438-0.812 0.0625l-0.5 0.03125-0.032 0.50005-0.187 2.6562c-1.06 0.2091-2.042 0.6405-2.907 1.2188l-2.406-2.0313-1.844 1.8437 2.032 2.4063c-0.578 0.8646-1.01 1.8462-1.219 2.9065l-2.656 0.187-0.5 0.032-0.031 0.5c-0.019 0.228-0.063 0.491-0.063 0.812s0.044 0.584 0.063 0.812l0.031 0.5 0.5 0.032 2.656 0.187c0.209 1.06 0.641 2.042 1.219 2.907l-1.719 2.031-0.313 0.375 0.313 0.375c0.356 0.412 0.744 0.8 1.156 1.156l0.375 0.313 0.375-0.313 2.031-1.719c0.865 0.578 1.847 1.01 2.907 1.219l0.187 2.656 0.032 0.5 0.5 0.031c0.228 0.019 0.491 0.063 0.812 0.063s0.584-0.044 0.812-0.063l0.5-0.031 0.032-0.5 0.187-2.656c1.06-0.209 2.042-0.641 2.907-1.219l2.031 1.719 0.375 0.313 0.375-0.313c0.412-0.356 0.8-0.744 1.156-1.156l0.313-0.375-0.313-0.375-1.719-2.031c0.578-0.865 1.01-1.847 1.219-2.907l2.656-0.187 0.5-0.032 0.031-0.5c0.019-0.228 0.063-0.491 0.063-0.812s-0.044-0.584-0.063-0.812l-0.031-0.5-0.5-0.032-2.656-0.187c-0.209-1.0603-0.641-2.0419-1.219-2.9065l1.719-2.0313 0.313-0.375-0.313-0.375c-0.356-0.4119-0.744-0.8005-1.156-1.1562l-0.375-0.3125-0.375 0.3125-2.031 1.7188c-0.865-0.5783-1.847-1.0097-2.907-1.2188l-0.187-2.6562-0.032-0.50005-0.5-0.03125c-0.228-0.01812-0.491-0.0625-0.812-0.0625zm0 7.625c1.932 0 3.5 1.568 3.5 3.5s-1.568 3.5-3.5 3.5-3.5-1.568-3.5-3.5 1.568-3.5 3.5-3.5z" fill="url(#radialGradient3116)"/>
   <path id="path2932" fill="url(#linearGradient3118)" d="m31 4c-4.416 0-8 3.584-8 8s3.584 8 8 8 8-3.584 8-8-3.584-8-8-8zm0 5c1.656 0 3 1.344 3 3s-1.344 3-3 3-3-1.344-3-3 1.344-3 3-3z"/>
   <path id="path2934" d="m32 19a8.5 8.5 0 1 1 -17 0 8.5 8.5 0 1 1 17 0z" transform="matrix(.88235 -.0000010264 .0000010264 .88235 10.265 -4.7647)" stroke="url(#linearGradient3120)" stroke-linecap="square" stroke-width="1.1333" fill="none"/>
   <path id="path2936" d="m32 19a8.5 8.5 0 1 1 -17 0 8.5 8.5 0 1 1 17 0z" transform="matrix(.41176 -4.79e-7 4.79e-7 .41176 21.324 4.1765)" stroke="url(#linearGradient3122)" stroke-linecap="square" stroke-width="2.4286" fill="none"/>
  </g>
  <path id="path2978" d="m16.156 26.5c-0.488 0.019-0.972 0.094-1.437 0.188h-0.031c-0.35 0.071-0.698 0.17-1.032 0.281-0.482 0.16-0.932 0.358-1.375 0.593l0.657 3.126c-0.477 0.352-0.925 0.765-1.282 1.25l-3.0935-0.626c-0.2564 0.485-0.4908 0.969-0.6563 1.5-0.2298 0.739-0.3752 1.538-0.4062 2.344l3.062 1.032c0.07 0.592 0.202 1.18 0.438 1.718l-2.125 2.375c0.2777 0.442 0.5897 0.865 0.9375 1.25l0.6255 0.594c0.388 0.355 0.803 0.685 1.25 0.969l2.374-2.125c0.286 0.127 0.564 0.229 0.876 0.312 0.294 0.079 0.611 0.154 0.906 0.188l1 3.031c0.488-0.019 0.972-0.094 1.437-0.188h0.031c0.35-0.071 0.698-0.17 1.032-0.281 0.482-0.16 0.932-0.358 1.375-0.593l-0.657-3.126c0.477-0.352 0.925-0.765 1.282-1.25l3.094 0.626c0.256-0.485 0.49-0.969 0.656-1.5 0.23-0.739 0.375-1.538 0.406-2.344l-3.062-1.032c-0.07-0.592-0.202-1.18-0.438-1.718l2.125-2.375c-0.278-0.442-0.59-0.865-0.937-1.25l-0.626-0.594c-0.388-0.355-0.803-0.685-1.25-0.969l-2.374 2.125c-0.286-0.127-0.564-0.229-0.876-0.312-0.294-0.079-0.611-0.154-0.906-0.188l-1-3.031zm0.125 7c0.114-0.013 0.228-0.007 0.344 0 0.133 0.008 0.273 0.027 0.406 0.062 1.067 0.286 1.692 1.403 1.407 2.469-0.286 1.067-1.403 1.692-2.469 1.407-1.067-0.286-1.692-1.403-1.407-2.469 0.219-0.817 0.925-1.38 1.719-1.469z" stroke="#2e3436" stroke-linecap="round" fill="url(#linearGradient3191)"/>
  <path id="path2995" d="m18.469 26.469l-2.094 0.593 0.844 4.032c0.056 0.312-0.044 0.632-0.269 0.856-0.224 0.225-0.544 0.325-0.856 0.269l-4.063-0.844-0.593 2.094 3.968 1.312c0.307 0.106 0.541 0.358 0.622 0.673 0.082 0.314 0.001 0.648-0.216 0.89l-2.718 3.062 1.468 1.5 3.094-2.75c0.242-0.216 0.576-0.297 0.89-0.216 0.315 0.082 0.567 0.316 0.673 0.622l1.312 3.969 2.094-0.593-0.844-4.032c-0.056-0.312 0.044-0.632 0.269-0.856 0.224-0.225 0.544-0.325 0.856-0.269l4.063 0.844 0.593-2.094-3.968-1.312c-0.307-0.106-0.541-0.358-0.622-0.673-0.082-0.314-0.001-0.648 0.216-0.89l2.718-3.062-1.468-1.5-3.094 2.75c-0.242 0.216-0.576 0.297-0.89 0.216-0.315-0.082-0.567-0.316-0.673-0.622l-1.312-3.969z" transform="translate(-3,1)" stroke="url(#linearGradient3171)" stroke-linecap="round" fill="none"/>
  <path id="path2999" opacity=".93725" d="m15.781 26.844l-3 0.875 0.938 4.469c0.027 0.151-0.016 0.297-0.125 0.406s-0.255 0.152-0.406 0.125l-4.5005-0.938-0.875 3 4.4375 1.469c0.149 0.051 0.242 0.191 0.281 0.344 0.04 0.152 0.012 0.289-0.093 0.406l-3.0318 3.438 2.1248 2.156 3.469-3.063c0.117-0.105 0.254-0.133 0.406-0.093 0.153 0.039 0.293 0.132 0.344 0.281l1.469 4.437 3-0.875-0.938-4.469c-0.027-0.151 0.016-0.297 0.125-0.406s0.255-0.152 0.406-0.125l4.5 0.938 0.876-3-4.438-1.469c-0.149-0.051-0.242-0.191-0.281-0.344-0.04-0.152-0.012-0.289 0.093-0.406l3.032-3.438-2.125-2.156-3.469 3.063c-0.117 0.105-0.254 0.133-0.406 0.093-0.153-0.039-0.293-0.132-0.344-0.281l-1.469-4.437zm0.719 5.656c1.656 0 3 1.344 3 3s-1.344 3-3 3-3-1.344-3-3 1.344-3 3-3z" fill="url(#radialGradient3187)"/>
  <path id="path3002" fill="url(#linearGradient3184)" d="m16.5 30c-3.036 0-5.5 2.464-5.5 5.5s2.464 5.5 5.5 5.5 5.5-2.464 5.5-5.5-2.464-5.5-5.5-5.5zm0 3c1.38 0 2.5 1.12 2.5 2.5s-1.12 2.5-2.5 2.5-2.5-1.12-2.5-2.5 1.12-2.5 2.5-2.5z"/>
  <path id="path3033" d="m22.716 34.587a3.1599 3.1599 0 1 1 -6.32 0 3.1599 3.1599 0 1 1 6.32 0z" transform="matrix(.94940 0 0 .94940 -2.0664 2.663)" stroke="url(#linearGradient3177)" stroke-linecap="round" stroke-width="1.0533" fill="none"/>
  <path id="path3037" d="m22.716 34.587a3.1599 3.1599 0 1 1 -6.32 0 3.1599 3.1599 0 1 1 6.32 0z" transform="matrix(1.5823 0 0 -1.5823 -14.444 90.228)" stroke="url(#linearGradient3179)" stroke-linecap="round" stroke-width=".63198" fill="none"/>
 </g>
</svg>
