<?xml version="1.0" encoding="UTF-8"?>
<svg xmlns="http://www.w3.org/2000/svg" xmlns:xlink="http://www.w3.org/1999/xlink" width="128px" height="128px" version="1.1">
<defs>
<linearGradient id="linear0" gradientUnits="userSpaceOnUse" x1="64" y1="246" x2="120" y2="246" gradientTransform="translate(0,-166)">
<stop style="stop-color:#bfbdba"/>
<stop offset="0.857143" style="stop-color:#bfbdba"/>
<stop offset="0.928571" style="stop-color:#dedcd9"/>
<stop offset="1" style="stop-color:#bfbdba"/>
</linearGradient>
<linearGradient id="linear1" gradientUnits="userSpaceOnUse" x1="64" y1="246" x2="120" y2="246" gradientTransform="matrix(-1,0,0,1,128,-166)">
<stop style="stop-color:#bfbdba"/>
<stop offset="0.857143" style="stop-color:#bfbdba"/>
<stop offset="0.928571" style="stop-color:#dedcd9"/>
<stop offset="1" style="stop-color:#bfbdba"/>
</linearGradient>
<filter id="alpha" filterUnits="objectBoundingBox">
  <feColorMatrix type="matrix" in="SourceGraphic" values="0 0 0 0 1 0 0 0 0 1 0 0 0 0 1 0 0 0 1 0"/>
</filter>
<mask id="mask0">
<rect width="128" height="128" style="opacity:0.1;" filter="url(#alpha)"/>
</mask>
<linearGradient id="linear2" gradientUnits="userSpaceOnUse" x1="320" y1="116" x2="416" y2="116" gradientTransform="matrix(-0.25,0,0,0.25,168,31)">
<stop style="stop-color:#f5f5f3"/>
<stop offset="0.5" style="stop-color:#ffffff"/>
<stop offset="1" style="stop-color:#deded9"/>
</linearGradient>
<linearGradient id="linear3" gradientUnits="userSpaceOnUse" x1="320" y1="116" x2="416" y2="116" gradientTransform="matrix(0.25,0,0,0.25,-40,31)">
<stop style="stop-color:#f5f5f3"/>
<stop offset="0.5" style="stop-color:#f5f5f3"/>
<stop offset="1" style="stop-color:#cccac7"/>
</linearGradient>
<linearGradient id="linear4" gradientUnits="userSpaceOnUse" x1="59.091709" y1="216.780304" x2="46.28891" y2="168.999603" gradientTransform="translate(-11.862876,-168.9809)">
<stop style="stop-color:#00cccc"/>
<stop offset="1" style="stop-color:#30e3d1"/>
</linearGradient>
</defs>
<path style="fill:#1ca8a8" d="M 120,94.355469 V 101 c 0,4.43359 -3.56641,8 -8,8 H 90 c -9.683594,0 -18.023438,5.73828 -21.816406,14 H 59.816406 C 56.023438,114.73828 47.683594,109 38,109 H 16 c -4.433594,0 -8,-3.56641 -8,-8 v -6.644531 z"/>
<path style="fill:url(#linear0)" d="M 66.328125,54.019531 C 66.167969,55.007812 66.054688,56 66,57 h -2 v 63 h 4.183594 C 71.976562,111.73828 80.316406,106 90,106 h 22 c 4.43359,0 8,-3.56641 8,-8 V 62.355469 c 0,-4.433594 -3.56641,-8 -8,-8 z"/>
<path style="fill:url(#linear1)" d="M 61.675781,54.019531 C 61.832031,55.007812 61.945312,56 62,57 h 2 v 63 H 59.816406 C 56.023438,111.73828 47.683594,106 38,106 H 16 c -4.433594,0 -8,-3.56641 -8,-8 V 62.355469 c 0,-4.433594 3.566406,-8 8,-8 z"/>
<g mask="url(#mask0)">
<path d="M 120,91.65625 C 119.91797,95.74609 116.62109,99 112.50781,99 h -0.5 v 1 h 0.5 c 3.2461,0 6.0586,-1.8125 7.49219,-4.48047 z M 88,99 l 24,1 v -1 z"/>
<path d="M 120,94.65625 C 119.91797,98.74609 116.62109,102 112.50781,102 h -0.5 v 1 h 0.5 c 3.22266,0 6.02344,-1.78906 7.46485,-4.42578 C 119.98438,98.38281 120,98.19141 120,98 Z M 94,102 l 18,1 v -1 z"/>
</g>
<path style="fill:url(#linear2)" d="m 112,21 c 4.43359,0 8,3.566406 8,8 v 59 c 0,4.433594 -3.56641,8 -8,8 H 88 C 74.746094,96 64,106.74609 64,120 V 47 C 64,33.746094 74.746094,21 88,21 z"/>
<path style="fill:url(#linear3)" d="m 16,21 c -4.433594,0 -8,3.566406 -8,8 v 59 c 0,4.433594 3.566406,8 8,8 h 24 c 13.253906,0 24,10.74609 24,24 V 47 C 64,33.746094 53.253906,21 40,21 z"/>
<path style="fill:#00cccc" d="m 102,32 v 6 H 90 c -4.375,0.183594 -8.464844,1.296875 -12,3.28125 V 35.730469 C 81.53125,33.394531 85.625,32 90,32 z"/>
<path style="fill:#dedcd9" d="m 108,44 v 4 H 90 c -4.375,0.183594 -8.464844,1.296875 -12,3.28125 V 47.730469 C 81.53125,45.394531 85.625,44 90,44 z"/>
<path style="fill:#dedcd9" d="m 108,52 v 4 H 90 c -4.375,0.183594 -8.464844,1.296875 -12,3.28125 V 55.730469 C 81.53125,53.394531 85.625,52 90,52 z"/>
<path style="fill:#dedcd9" d="m 108,60 v 4 H 90 c -4.375,0.183594 -8.464844,1.296875 -12,3.28125 V 63.730469 C 81.53125,61.394531 85.625,60 90,60 z"/>
<path style="fill:#dedcd9" d="M 36,76 H 20 v 4 h 16 z"/>
<path style="fill:#dedcd9" d="m 20,44 v 4 h 20 c 3.574219,0.148438 6.953125,0.929688 10,2.292969 V 46.558594 C 46.953125,44.941406 43.574219,44 40,44 z"/>
<path style="fill:#dedcd9" d="m 20,52 v 4 h 20 c 3.574219,0.148438 6.953125,0.929688 10,2.292969 V 54.558594 C 46.953125,52.941406 43.574219,52 40,52 z"/>
<path style="fill:#dedcd9" d="m 20,60 v 4 h 20 c 3.574219,0.148438 6.953125,0.929688 10,2.292969 V 62.558594 C 46.953125,60.941406 43.574219,60 40,60 z"/>
<path style="fill:#dedcd9" d="m 20,36 v 4 h 20 c 3.574219,0.148438 6.953125,0.929688 10,2.292969 V 38.558594 C 46.953125,36.941406 43.574219,36 40,36 z"/>
<path style="fill:#dedcd9" d="m 20,68 v 4 h 20 c 3.574219,0.148438 6.953125,0.929688 10,2.292969 V 70.558594 C 46.953125,68.941406 43.574219,68 40,68 z"/>
<path style="fill:#dedcd9" d="m 100,68 v 4 H 90 c -4.375,0.183594 -8.464844,1.296875 -12,3.28125 V 71.730469 C 81.53125,69.394531 85.625,68 90,68 z"/>
<path style="fill:url(#linear4)" d="m 34.433594,0 c 0,0 -8.230469,20.4375 -8.207032,31.1875 0.01563,8 1.101563,17.027344 6.210938,23.183594 3.925781,4.726562 16.628906,7.964844 16.628906,7.964844 l 3.863282,-1.035157 c 0,0 9.378906,-9.15625 10.417968,-15.210937 C 64.695312,38.203125 61.121094,29.84375 57.136719,22.90625 51.78125,13.582031 34.433594,0 34.433594,0 z"/>
<path style="fill:#1ca8a8" d="M 53.214844,77.820312 C 42.441406,37.617188 42.726562,33.128906 37.457031,11.003906 c 6.53125,21.703125 8.847657,25.578125 19.621094,65.78125 z"/>
<path style="fill:#1ca8a8" d="m 42.089844,30.066406 c 3.617187,-6.261718 4.914062,-7.515625 6.195312,-9.597656 -1.160156,2.152344 -1.636718,3.878906 -5.253906,10.140625 z"/>
<path style="fill:#1ca8a8" d="m 44.597656,39.785156 c 5.019532,-8.695312 6.820313,-10.4375 8.597656,-13.332031 -1.605468,2.992187 -2.269531,5.390625 -7.292968,14.085937 z"/>
<path style="fill:#1ca8a8" d="m 47.359375,50.210938 c 5.3125,-9.199219 7.214844,-11.042969 9.097656,-14.101563 -1.703125,3.164063 -2.40625,5.699219 -7.714843,14.898437 z"/>
<path style="fill:#1ca8a8" d="m 42.835938,29.867188 c -6.265626,-3.613282 -8.011719,-4.050782 -10.164063,-5.214844 2.078125,1.285156 3.355469,2.542968 9.617187,6.15625 z"/>
<path style="fill:#1ca8a8" d="m 45.523438,39.539062 c -8.695313,-5.023437 -11.125,-5.632812 -14.113282,-7.246093 2.890625,1.785156 4.660156,3.53125 13.359375,8.550781 z"/>
<path style="fill:#1ca8a8" d="m 48.34375,49.945312 c -9.199219,-5.3125 -11.769531,-5.957031 -14.929688,-7.664062 3.054688,1.890625 4.933594,3.734375 14.132813,9.046875 z"/>
</svg>
