<?xml version="1.0" encoding="UTF-8" standalone="no"?>
<!-- Created with Inkscape (http://www.inkscape.org/) -->

<svg
   xmlns:dc="http://purl.org/dc/elements/1.1/"
   xmlns:cc="http://creativecommons.org/ns#"
   xmlns:rdf="http://www.w3.org/1999/02/22-rdf-syntax-ns#"
   xmlns:svg="http://www.w3.org/2000/svg"
   xmlns="http://www.w3.org/2000/svg"
   xmlns:xlink="http://www.w3.org/1999/xlink"
   xmlns:sodipodi="http://sodipodi.sourceforge.net/DTD/sodipodi-0.dtd"
   xmlns:inkscape="http://www.inkscape.org/namespaces/inkscape"
   version="1.1"
   width="48"
   height="48"
   id="svg11300"
   inkscape:version="0.48.1 r9760"
   sodipodi:docname="View-zoom-1.svg">
  <sodipodi:namedview
     pagecolor="#ffffff"
     bordercolor="#666666"
     borderopacity="1"
     objecttolerance="10"
     gridtolerance="10"
     guidetolerance="10"
     inkscape:pageopacity="0"
     inkscape:pageshadow="2"
     inkscape:window-width="1820"
     inkscape:window-height="1056"
     id="namedview5046"
     showgrid="true"
     inkscape:zoom="16"
     inkscape:cx="26.40737"
     inkscape:cy="24.160965"
     inkscape:window-x="99"
     inkscape:window-y="0"
     inkscape:window-maximized="1"
     inkscape:current-layer="text3206">
    <inkscape:grid
       type="xygrid"
       id="grid5048" />
  </sodipodi:namedview>
  <defs
     id="defs3">
    <linearGradient
       id="linearGradient2846">
      <stop
         id="stop2848"
         style="stop-color:#8a8a8a;stop-opacity:1"
         offset="0" />
      <stop
         id="stop2850"
         style="stop-color:#484848;stop-opacity:1"
         offset="1" />
    </linearGradient>
    <linearGradient
       id="linearGradient2366">
      <stop
         id="stop2368"
         style="stop-color:#ffffff;stop-opacity:1"
         offset="0" />
      <stop
         id="stop2374"
         style="stop-color:#ffffff;stop-opacity:0.21904762"
         offset="0.5" />
      <stop
         id="stop2370"
         style="stop-color:#ffffff;stop-opacity:1"
         offset="1" />
    </linearGradient>
    <linearGradient
       id="linearGradient4487">
      <stop
         id="stop4489"
         style="stop-color:#ffffff;stop-opacity:1"
         offset="0" />
      <stop
         id="stop4491"
         style="stop-color:#ffffff;stop-opacity:0"
         offset="1" />
    </linearGradient>
    <linearGradient
       id="linearGradient4477">
      <stop
         id="stop4479"
         style="stop-color:#000000;stop-opacity:1"
         offset="0" />
      <stop
         id="stop4481"
         style="stop-color:#000000;stop-opacity:0"
         offset="1" />
    </linearGradient>
    <linearGradient
       id="linearGradient4467">
      <stop
         id="stop4469"
         style="stop-color:#ffffff;stop-opacity:1"
         offset="0" />
      <stop
         id="stop4471"
         style="stop-color:#ffffff;stop-opacity:0.24761905"
         offset="1" />
    </linearGradient>
    <linearGradient
       id="linearGradient4454">
      <stop
         id="stop4456"
         style="stop-color:#729fcf;stop-opacity:0.20784314"
         offset="0" />
      <stop
         id="stop4458"
         style="stop-color:#729fcf;stop-opacity:0.6761905"
         offset="1" />
    </linearGradient>
    <linearGradient
       id="linearGradient4440">
      <stop
         id="stop4442"
         style="stop-color:#7d7d7d;stop-opacity:1"
         offset="0" />
      <stop
         id="stop4448"
         style="stop-color:#b1b1b1;stop-opacity:1"
         offset="0.5" />
      <stop
         id="stop4444"
         style="stop-color:#686868;stop-opacity:1"
         offset="1" />
    </linearGradient>
    <linearGradient
       x1="30.65625"
       y1="34"
       x2="33.21875"
       y2="31.0625"
       id="linearGradient4446"
       xlink:href="#linearGradient4440"
       gradientUnits="userSpaceOnUse"
       gradientTransform="matrix(1.334593,0,0,1.291292,-6.973842,-7.460658)" />
    <radialGradient
       cx="18.240929"
       cy="21.817987"
       r="8.3085051"
       fx="18.240929"
       fy="21.817987"
       id="radialGradient4460"
       xlink:href="#linearGradient4454"
       gradientUnits="userSpaceOnUse" />
    <radialGradient
       cx="15.414371"
       cy="13.078408"
       r="6.65625"
       fx="15.414371"
       fy="13.078408"
       id="radialGradient4473"
       xlink:href="#linearGradient4467"
       gradientUnits="userSpaceOnUse"
       gradientTransform="matrix(2.592963,0,0,2.252104,-25.05975,-18.941)" />
    <radialGradient
       cx="24.130018"
       cy="37.967922"
       r="16.528622"
       fx="24.130018"
       fy="37.967922"
       id="radialGradient4493"
       xlink:href="#linearGradient4487"
       gradientUnits="userSpaceOnUse"
       gradientTransform="matrix(1,0,0,0.237968,0,28.93278)" />
    <linearGradient
       x1="18.292673"
       y1="13.602121"
       x2="17.500893"
       y2="25.743469"
       id="linearGradient2372"
       xlink:href="#linearGradient2366"
       gradientUnits="userSpaceOnUse" />
    <radialGradient
       cx="24.130018"
       cy="37.967922"
       r="16.528622"
       fx="24.130018"
       fy="37.967922"
       id="radialGradient2842"
       xlink:href="#linearGradient4477"
       gradientUnits="userSpaceOnUse"
       gradientTransform="matrix(1,0,0,0.237968,0,28.93278)" />
    <linearGradient
       x1="27.366341"
       y1="26.580296"
       x2="31.335964"
       y2="30.557772"
       id="linearGradient2852"
       xlink:href="#linearGradient2846"
       gradientUnits="userSpaceOnUse" />
  </defs>
  <metadata
     id="metadata4">
    <rdf:RDF>
      <cc:Work
         rdf:about="">
        <dc:format>image/svg+xml</dc:format>
        <dc:type
           rdf:resource="http://purl.org/dc/dcmitype/StillImage" />
        <dc:creator>
          <cc:Agent>
            <dc:title>Jakub Steiner</dc:title>
          </cc:Agent>
        </dc:creator>
        <dc:source>http://jimmac.musichall.cz</dc:source>
        <cc:license
           rdf:resource="http://creativecommons.org/licenses/by-sa/2.0/" />
        <dc:title></dc:title>
      </cc:Work>
      <cc:License
         rdf:about="http://creativecommons.org/licenses/by-sa/2.0/">
        <cc:permits
           rdf:resource="http://web.resource.org/cc/Reproduction" />
        <cc:permits
           rdf:resource="http://web.resource.org/cc/Distribution" />
        <cc:requires
           rdf:resource="http://web.resource.org/cc/Notice" />
        <cc:requires
           rdf:resource="http://web.resource.org/cc/Attribution" />
        <cc:permits
           rdf:resource="http://web.resource.org/cc/DerivativeWorks" />
        <cc:requires
           rdf:resource="http://web.resource.org/cc/ShareAlike" />
      </cc:License>
    </rdf:RDF>
  </metadata>
  <g
     id="layer1">
    <g
       id="g1772">
      <path
         d="m 40.65864,37.967922 a 16.528622,3.9332814 0 1 1 -33.0572434,0 16.528622,3.9332814 0 1 1 33.0572434,0 z"
         transform="matrix(1.446431,0,0,1.51999,-10.97453,-17.75168)"
         id="path4475"
         style="opacity:0.17112301;color:#000000;fill:url(#radialGradient2842);fill-opacity:1;fill-rule:evenodd;stroke:none;stroke-width:1;marker:none;visibility:visible;display:inline;overflow:visible" />
      <path
         d="m 18.627569,3.1435548 c -8.13913,0 -14.7448008,6.6056711 -14.7448008,14.7448012 0,8.13913 6.6056708,14.744802 14.7448008,14.744802 3.479555,0 6.551001,-1.384393 9.073723,-3.402647 -0.205377,1.006881 -0.07803,2.035368 0.756144,2.759925 l 10.964084,9.52741 c 1.233416,1.071329 3.087462,0.93096 4.15879,-0.302457 1.071328,-1.233418 0.930959,-3.087462 -0.302457,-4.15879 L 32.313769,27.529188 c -0.671527,-0.583279 -1.492878,-0.755969 -2.306238,-0.642722 1.9867,-2.512422 3.364839,-5.548803 3.364839,-8.99811 0,-8.1391301 -6.605671,-14.7448012 -14.744801,-14.7448012 z m -0.07562,1.2261833 c 7.639459,0 13.291775,4.7889505 13.291775,13.2917749 0,8.675113 -5.81669,13.291775 -13.291775,13.291775 -7.302949,0 -13.2917734,-5.478092 -13.2917734,-13.291775 0,-7.9841069 5.8246384,-13.291775 13.2917734,-13.2917749 z"
         id="path2844"
         style="color:#000000;fill:#dcdcdc;fill-opacity:1;fill-rule:evenodd;stroke:url(#linearGradient2852);stroke-width:2.00000095;stroke-linecap:round;stroke-linejoin:miter;stroke-miterlimit:10;stroke-opacity:1;stroke-dasharray:none;stroke-dashoffset:0;marker:none;visibility:visible;display:inline;overflow:visible" />
      <path
         d="m 18.602905,3.0803551 c -8.16544,0 -14.7924642,6.627024 -14.7924642,14.7924639 0,8.16544 6.6270242,14.792464 14.7924642,14.792464 3.490803,0 6.572177,-1.388867 9.103055,-3.413645 -0.206041,1.010136 -0.07829,2.041947 0.758587,2.768846 l 10.999526,9.558207 c 1.237403,1.074792 3.097442,0.93397 4.172233,-0.303435 1.074791,-1.237404 0.933968,-3.097442 -0.303435,-4.172233 L 32.333346,27.544815 c -0.673698,-0.585164 -1.497704,-0.758413 -2.313693,-0.644799 1.993122,-2.520544 3.375716,-5.56674 3.375716,-9.027197 0,-8.1654399 -6.627024,-14.7924639 -14.792464,-14.7924639 z m -0.07586,3.1860692 c 6.281108,2e-7 11.378818,5.0977107 11.378818,11.3788187 0,6.281108 -5.09771,11.378818 -11.378818,11.378818 -6.281108,0 -11.3788184,-5.09771 -11.3788184,-11.378818 2e-7,-6.281108 5.0977104,-11.3788187 11.3788184,-11.3788187 z"
         id="path4430"
         style="color:#000000;fill:#dcdcdc;fill-opacity:1;fill-rule:evenodd;stroke:none;stroke-width:1.00000036;marker:none;visibility:visible;display:inline;overflow:visible" />
      <path
         d="m 39.507004,41.57769 c -0.478672,-2.273187 1.39733,-4.811422 3.584053,-4.788375 0,0 -10.760367,-9.258111 -10.760367,-9.258111 -2.944791,-0.05671 -4.269502,2.272616 -3.776814,4.599922 l 10.953128,9.446564 z"
         id="path4438"
         style="color:#000000;fill:url(#linearGradient4446);fill-opacity:1;fill-rule:evenodd;stroke:none;stroke-width:1;marker:none;visibility:visible;display:inline;overflow:visible" />
      <path
         d="m 28.549437,18.920233 a 11.048544,11.048544 0 1 1 -22.0970883,0 11.048544,11.048544 0 1 1 22.0970883,0 z"
         transform="matrix(1.245743,0,0,1.245743,-3.425346,-6.177033)"
         id="path4450"
         style="color:#000000;fill:none;stroke:url(#linearGradient2372);stroke-width:0.8027336;stroke-linecap:round;stroke-linejoin:miter;stroke-miterlimit:10;stroke-opacity:1;stroke-dasharray:none;stroke-dashoffset:0;marker:none;visibility:visible;display:inline;overflow:visible" />
      <path
         d="m 40.65864,37.967922 a 16.528622,3.9332814 0 1 1 -33.0572434,0 16.528622,3.9332814 0 1 1 33.0572434,0 z"
         transform="matrix(0.497764,0,0,0.609621,8.973526,15.61929)"
         id="path4485"
         style="color:#000000;fill:url(#radialGradient4493);fill-opacity:1;fill-rule:evenodd;stroke:none;stroke-width:1;marker:none;visibility:visible;display:inline;overflow:visible" />
      <rect
         width="19.048439"
         height="4.4404783"
         rx="2.1366608"
         ry="1.8879365"
         x="40.373337"
         y="0.14086054"
         transform="matrix(0.752986,0.658037,-0.648902,0.760872,0,0)"
         id="rect4495"
         style="opacity:0.43315507;color:#000000;fill:none;stroke:#ffffff;stroke-width:1.00003111;stroke-linecap:round;stroke-linejoin:miter;stroke-miterlimit:10;stroke-opacity:1;stroke-dasharray:none;stroke-dashoffset:0;marker:none;visibility:visible;display:inline;overflow:visible" />
      <path
         d="m 25.897786,18.478292 a 8.3085051,8.3085051 0 1 1 -16.61701,0 8.3085051,8.3085051 0 1 1 16.61701,0 z"
         transform="matrix(1.398614,0,0,1.398614,-6.224338,-8.298958)"
         id="path4452"
         style="color:#000000;fill:url(#radialGradient4460);fill-opacity:1;fill-rule:evenodd;stroke:#3063a3;stroke-width:0.71499395;stroke-linecap:round;stroke-linejoin:miter;stroke-miterlimit:10;stroke-opacity:1;stroke-dashoffset:0;marker:none;visibility:visible" />
      <path
         d="m 18.156915,7.3966938 c -5.20759,0 -9.4245469,4.2169572 -9.4245469,9.4245472 0,1.503975 0.4203072,2.887773 1.0471719,4.149903 1.25238,0.461613 2.582757,0.775683 3.994767,0.775683 6.170955,0 11.099282,-4.861637 11.480106,-10.937129 C 23.523449,8.7641668 21.044374,7.3966938 18.156915,7.3966938 z"
         id="path4462"
         style="opacity:0.83422457;color:#000000;fill:url(#radialGradient4473);fill-opacity:1;fill-rule:evenodd;stroke:none;stroke-width:1;marker:none;visibility:visible;display:inline;overflow:visible" />
    </g>
  </g>
  <g
     transform="translate(0.78125,-0.419922)"
     id="text3206"
     style="font-size:20px;font-style:normal;font-weight:normal;line-height:125%;letter-spacing:0px;word-spacing:0px;fill:#204a87;fill-opacity:1;stroke:none;font-family:Sans">
    <path
       d="m 16.71875,21.919924 0,-8.646449 -3,0.917777 0,-3.27133 3,-1 3,2e-6 0,11.982422 3,0.01758 0,2.999996 -9,4e-6 0,-2.999996 z"
       id="path3213"
       style="font-variant:normal;font-weight:bold;font-stretch:normal;fill:#729fcf;stroke:#3465a4;font-family:DejaVu Sans;-inkscape-font-specification:DejaVu Sans Bold"
       inkscape:connector-curvature="0"
       sodipodi:nodetypes="cccccccccccc" />
    <path
       style="fill:#eeeeec;stroke:none;stroke-width:1px;stroke-linecap:butt;stroke-linejoin:miter;stroke-opacity:1;opacity:0.4"
       d="M 17.65625 10 L 15 10.875 L 15 13.09375 L 17.34375 12.375 L 18 12.1875 L 18 12.875 L 18 16.71875 C 18.311581 16.783849 18.635577 16.878526 19 17 C 19.333462 17.111154 19.670658 17.156288 20 17.15625 L 20 10 L 17.65625 10 z "
       transform="translate(-0.78125,0.419922)"
       id="path5050" />
  </g>
</svg>
