<?xml version="1.0" encoding="UTF-8" standalone="no"?>
<!DOCTYPE svg  PUBLIC '-//W3C//DTD SVG 1.1//EN'  'http://www.w3.org/Graphics/SVG/1.1/DTD/svg11.dtd'>
<svg width="48" xmlns="http://www.w3.org/2000/svg" xmlns:xlink="http://www.w3.org/1999/xlink" version="1.1" height="48">
 <defs>
  <radialGradient id="radialGradient4120" gradientUnits="userSpaceOnUse" cy="63.965" cx="15.116" gradientTransform="scale(1.644 .60828)" r="12.289">
   <stop id="stop4116" offset="0"/>
   <stop id="stop4118" stop-opacity="0" offset="1"/>
  </radialGradient>
  <radialGradient id="radialGradient4356" gradientUnits="userSpaceOnUse" cy="10.476" cx="11.827" gradientTransform="scale(1.1795 .84779)" r="32.665">
   <stop id="stop4352" stop-color="#fff" offset="0"/>
   <stop id="stop4354" stop-color="#fff" stop-opacity="0" offset="1"/>
  </radialGradient>
  <radialGradient id="radialGradient293" gradientUnits="userSpaceOnUse" cy="12.142" cx="15.601" gradientTransform="scale(.99999 1)" r="43.527">
   <stop id="stop4128" stop-color="#fff" offset="0"/>
   <stop id="stop4130" stop-color="#fff" stop-opacity=".16495" offset="1"/>
  </radialGradient>
  <radialGradient id="radialGradient377" gradientUnits="userSpaceOnUse" cy="15.716" cx="18.248" gradientTransform="scale(.99999 1)" r="29.993">
   <stop id="stop3964" stop-color="#d3e9ff" offset="0"/>
   <stop id="stop4134" stop-color="#d3e9ff" offset=".15517"/>
   <stop id="stop4346" stop-color="#4074ae" offset=".75"/>
   <stop id="stop3966" stop-color="#36486c" offset="1"/>
  </radialGradient>
  <radialGradient id="radialGradient636" fx="18.934" fy="17.81" gradientUnits="userSpaceOnUse" cy="17.486" cx="18.634" gradientTransform="matrix(1.0185 0 0 .94748 -.080952 .030883)" r="40.693">
   <stop id="stop4752" stop-color="#fff" offset="0"/>
   <stop id="stop4758" stop-color="#fefefe" offset=".37931"/>
   <stop id="stop4754" stop-color="#1d1d1d" offset="1"/>
  </radialGradient>
 </defs>
 <path id="path4112" fill="url(#radialGradient4120)" d="m45.053 38.909a20.203 7.4751 0 1 1 -40.406 0 20.203 7.4751 0 1 1 40.406 0z" transform="matrix(1 0 0 1.2432 0 -10.272)"/>
 <path stroke="#39396c" d="m43.96 23.485c0 10.71-8.682 19.392-19.39 19.392-10.71 0-19.391-8.682-19.391-19.392-0.0003-10.709 8.681-19.39 19.391-19.39 10.708 0.0002 19.39 8.681 19.39 19.39z" fill="url(#radialGradient377)"/>
 <path id="path4348" opacity=".42" fill="url(#radialGradient4356)" d="m30.709 15.271a12.93 9.2934 0 1 1 -25.86 0 12.93 9.2934 0 1 1 25.86 0z" transform="matrix(.83594 0 0 1 9.8869 0)"/>
 <path d="m18.519 14.641 0.429-0.647-0.643-0.484 0.214 1.131m-0.356 13.336-0.572-1.132-1.071-0.242-0.572-1.535-1.428 0.161-1.213-0.888-1.286 1.131v0.178c-0.389-0.112-0.867-0.127-1.214-0.34l-0.286-0.808v-0.889l-0.8564 0.08c0.0715-0.566 0.1425-1.131 0.2145-1.697h-0.5004l-0.4993 0.647-0.5003 0.242-0.7143-0.403-0.0715-0.89 0.1429-0.97 1.0716-0.807h0.8567l0.1425-0.486 1.071 0.242 0.786 0.971 0.143-1.618 1.357-1.131 0.499-1.212 1-0.404 0.571-0.808 1.285-0.244 0.644-0.969h-1.929l1.214-0.566h0.857l1.214-0.405 0.143-0.483-0.429-0.405-0.5-0.162 0.143-0.484-0.357-0.728-0.857 0.323 0.143-0.646-0.999-0.566-0.786 1.373 0.071 0.485-0.785 0.324-0.5 1.051-0.214-0.97-1.357-0.566-0.215-0.727 1.786-1.0516 0.786-0.7272 0.071-0.8888-0.428-0.2427-0.572-0.0811-0.356 0.8893s-0.598 0.117-0.751 0.155c-1.961 1.8071-5.9232 5.7081-6.8437 13.071 0.0365 0.171 0.6673 1.161 0.6673 1.161l1.4995 0.889 1.4995 0.404 0.6434 0.809 0.999 0.727 0.571-0.08 0.429 0.193v0.13l-0.571 1.535-0.429 0.647 0.143 0.324-0.357 1.211 1.285 2.345 1.285 1.132 0.572 0.807-0.072 1.698 0.429 0.969-0.429 1.86s-0.033-0.012 0.021 0.174c0.056 0.186 2.288 1.426 2.43 1.32 0.142-0.107 0.263-0.201 0.263-0.201l-0.143-0.403 0.571-0.566 0.215-0.566 0.928-0.325 0.714-1.778-0.214-0.484 0.499-0.727 1.072-0.243 0.571-1.294-0.143-1.615 0.857-1.213 0.143-1.212c-1.172-0.582-2.335-1.18-3.499-1.779m-3.427-18.994-0.358 0.8888h0.715l0.357-0.8083c0.308-0.2177 0.615-0.4369 0.928-0.6466l0.715 0.2428c0.475 0.3233 0.951 0.6466 1.428 0.9694l0.714-0.6461-0.786-0.3233-0.357-0.7277-1.357-0.1616-0.071-0.4044-0.643 0.1621-0.286 0.5656-0.357-0.7276-0.142 0.3233 0.071 0.8083-0.571 0.4853m11.782-2.9903-1.857-0.7276-2.141 0.2423-2.643 0.7271-0.5 0.4854 1.643 1.1311v0.6466l-0.643 0.6466 0.857 1.6987 0.57-0.324 0.716-1.1316c1.103-0.341 2.092-0.7276 3.141-1.2126l0.857-2.182m-0.785 3.3136-0.072 0.4845 0.501 0.3231 0.855-0.5654-0.427-0.485-0.572 0.3238-0.285-0.081m2.714 3.4766-0.286-0.729-0.501 0.163 0.144 0.888 0.643-0.322m14.969 7.799v0l-0.535 0.606c-0.328-0.386-0.696-0.711-1.07-1.051l-0.822 0.121-0.75-0.848v1.049l0.643 0.487 0.428 0.484 0.571-0.646c0.144 0.269 0.286 0.539 0.429 0.808v0.808l-0.643 0.727-1.179 0.809-0.892 0.89-0.571-0.648 0.285-0.727-0.57-0.647-0.965-2.061-0.821-0.928-0.215 0.241 0.323 1.173 0.606 0.687c0.346 0.999 0.689 1.955 1.144 2.91 0.705 0 1.369-0.075 2.07-0.163v0.566l-0.857 2.102-0.786 0.888-0.642 1.376v2.262l0.215 0.89-0.357 0.403-0.787 0.486-0.821 0.686 0.679 0.768-0.929 0.81 0.179 0.523-1.393 1.578h-0.928l-0.786 0.485h-0.5v-0.647l-0.213-1.295c-0.277-0.811-0.564-1.617-0.857-2.423 0-0.595 0.035-1.184 0.071-1.779l0.358-0.807-0.501-0.971 0.036-1.334-0.679-0.767 0.34-1.111-0.553-0.627h-0.965l-0.321-0.364-0.964 0.607-0.393-0.446-0.893 0.768c-0.606-0.687-1.213-1.374-1.821-2.061l-0.713-1.698 0.642-0.969-0.356-0.404 0.784-1.86c0.645-0.802 1.318-1.571 2-2.343l1.214-0.324 1.357-0.161 0.928 0.243 1.321 1.332 0.465-0.524 0.641-0.081 1.215 0.404h0.929l0.642-0.566 0.286-0.404-0.644-0.404-1.071-0.08c-0.298-0.413-0.574-0.847-0.927-1.213l-0.358 0.161-0.143 1.052-0.643-0.728-0.141-0.809-0.714-0.564h-0.287l0.715 0.807-0.286 0.728-0.571 0.161 0.357-0.727-0.644-0.323-0.57-0.646-1.072 0.241-0.142 0.323-0.643 0.405-0.357 0.889-0.892 0.444-0.394-0.444h-0.427v-1.455l0.928-0.486h0.714l-0.144-0.565-0.57-0.566 0.963-0.202 0.536-0.606 0.428-0.728h0.786l-0.215-0.565 0.501-0.323v0.647l1.071 0.241 1.07-0.888 0.072-0.405 0.928-0.646c-0.336 0.042-0.672 0.072-1 0.162v-0.728l0.357-0.8087h-0.357l-0.784 0.7272-0.215 0.4045 0.215 0.566-0.358 0.969-0.571-0.323-0.499-0.565-0.786 0.565-0.286-1.293 1.356-0.8886v-0.4854l0.858-0.5655 1.356-0.3238 0.929 0.3238 1.713 0.3233-0.427 0.4845h-0.929l0.929 0.9697 0.713-0.8076 0.217-0.3554s2.738 2.454 4.303 5.138c1.565 2.685 2.299 5.85 2.299 6.493zm-26.11-13.62 0.357-0.3228 0.715-0.1617c0.489-0.238 0.98-0.3982 1.499-0.5661l-0.285-0.485-0.922 0.1324-0.435 0.4342-0.718 0.1041-0.639 0.2998-0.31 0.1501-0.19 0.2538 0.928 0.1612m-0.714 2.6674 0.714 0.4848h0.572v-0.5654l-0.714-0.3233-0.572 0.4039m12.14 2.9908-0.143 0.97 0.785-0.162 0.571-0.565-0.5-0.485c-0.167-0.447-0.36-0.865-0.57-1.293h-0.428v0.484l0.285 0.323v0.728" fill-opacity=".71"/>
 <path d="m18.317 14.439 0.429-0.647-0.643-0.484 0.214 1.131m-3.784-5.6579-0.358 0.8888h0.715l0.357-0.8083c0.308-0.2178 0.615-0.4369 0.928-0.6466l0.715 0.2428c0.475 0.3233 0.951 0.6466 1.427 0.9694l0.715-0.6461-0.786-0.3233-0.357-0.7277-1.357-0.1617-0.071-0.4043-0.643 0.1621-0.286 0.5656-0.357-0.7276-0.142 0.3233 0.071 0.8083-0.571 0.4853m3.427 18.994-0.571-1.132-1.071-0.242-0.572-1.535-1.428 0.161-1.213-0.888-1.286 1.131v0.178c-0.389-0.112-0.867-0.127-1.214-0.34l-0.286-0.808v-0.889l-0.8564 0.08c0.0715-0.566 0.1424-1.131 0.2144-1.697h-0.5003l-0.4993 0.647-0.5003 0.241-0.7143-0.402-0.0715-0.89 0.1429-0.97 1.0716-0.808h0.8567l0.1424-0.485 1.0711 0.242 0.786 0.971 0.143-1.618 1.357-1.131 0.499-1.212 1-0.404 0.571-0.808 1.285-0.244 0.644-0.969h-1.929l1.214-0.566h0.857l1.214-0.405 0.143-0.483-0.429-0.405-0.5-0.162 0.143-0.485-0.357-0.727-0.857 0.323 0.143-0.646-1-0.5665-0.785 1.3735 0.071 0.485-0.785 0.324-0.5 1.051-0.214-0.97-1.357-0.566-0.215-0.727 1.786-1.0516 0.785-0.7272 0.072-0.8888-0.428-0.2428-0.572-0.081-0.356 0.8893s-0.598 0.117-0.751 0.1549c-1.961 1.8072-5.9232 5.7082-6.8437 13.071 0.0365 0.171 0.6672 1.161 0.6672 1.161l1.4995 0.889 1.4995 0.404 0.6433 0.809 0.9992 0.727 0.571-0.08 0.429 0.193v0.13l-0.571 1.535-0.429 0.647 0.143 0.324-0.357 1.211 1.285 2.345 1.285 1.132 0.572 0.807-0.072 1.698 0.429 0.969-0.429 1.86s-0.033-0.012 0.021 0.174c0.056 0.186 2.288 1.426 2.43 1.32 0.142-0.107 0.263-0.201 0.263-0.201l-0.143-0.403 0.571-0.566 0.215-0.566 0.928-0.325 0.714-1.778-0.214-0.484 0.499-0.727 1.072-0.243 0.571-1.294-0.143-1.615 0.857-1.213 0.143-1.212c-1.172-0.582-2.335-1.18-3.499-1.779m8.355-21.984-1.857-0.7276-2.141 0.2422-2.643 0.7272-0.5 0.4854 1.643 1.1311v0.6466l-0.643 0.6466 0.857 1.6987 0.57-0.324 0.716-1.1316c1.103-0.3411 2.092-0.7276 3.141-1.2126l0.857-2.1821m-0.785 3.3137-0.072 0.4845 0.501 0.3233 0.855-0.5656-0.427-0.485-0.572 0.3238-0.285-0.081m17.683 11.276v0l-0.535 0.606c-0.328-0.386-0.696-0.711-1.07-1.051l-0.822 0.121-0.75-0.848v1.049l0.643 0.487 0.428 0.484 0.571-0.646c0.144 0.269 0.286 0.539 0.429 0.808v0.808l-0.643 0.727-1.179 0.809-0.892 0.89-0.571-0.648 0.285-0.727-0.57-0.647-0.965-2.061-0.821-0.928-0.215 0.241 0.323 1.173 0.606 0.687c0.346 0.999 0.689 1.955 1.144 2.91 0.705 0 1.369-0.075 2.07-0.163v0.566l-0.857 2.102-0.786 0.888-0.642 1.376v2.262l0.215 0.89-0.357 0.403-0.787 0.486-0.821 0.686 0.679 0.768-0.929 0.81 0.179 0.523-1.393 1.578h-0.928l-0.786 0.485h-0.5v-0.647l-0.213-1.295c-0.277-0.811-0.564-1.617-0.857-2.423 0-0.595 0.035-1.184 0.071-1.779l0.358-0.807-0.501-0.971 0.036-1.334-0.679-0.767 0.34-1.111-0.553-0.627h-0.965l-0.321-0.364-0.964 0.607-0.393-0.446-0.893 0.768c-0.606-0.687-1.213-1.374-1.821-2.061l-0.713-1.698 0.642-0.969-0.357-0.404 0.785-1.86c0.645-0.802 1.318-1.571 2-2.343l1.214-0.324 1.357-0.161 0.928 0.243 1.321 1.332 0.465-0.524 0.641-0.081 1.215 0.404h0.928l0.643-0.566 0.286-0.404-0.644-0.404-1.071-0.08c-0.298-0.413-0.574-0.847-0.927-1.213l-0.358 0.161-0.143 1.052-0.643-0.728-0.141-0.809-0.714-0.564h-0.287l0.715 0.807-0.286 0.728-0.571 0.161 0.357-0.727-0.644-0.323-0.57-0.646-1.072 0.241-0.142 0.323-0.643 0.405-0.357 0.889-0.892 0.444-0.394-0.444h-0.427v-1.455l0.928-0.486h0.714l-0.144-0.565-0.57-0.566 0.963-0.202 0.536-0.606 0.428-0.728h0.786l-0.215-0.565 0.501-0.323v0.646l1.071 0.242 1.07-0.888 0.072-0.405 0.928-0.646c-0.336 0.042-0.672 0.072-1 0.162v-0.7284l0.357-0.8083h-0.357l-0.784 0.7272-0.215 0.4045 0.215 0.566-0.358 0.969-0.571-0.323-0.499-0.565-0.786 0.565-0.286-1.293 1.356-0.8886v-0.4854l0.858-0.5655 1.356-0.3238 0.929 0.3238 1.713 0.3233-0.427 0.4845h-0.929l0.929 0.9699 0.713-0.8078 0.217-0.3555s2.738 2.4541 4.303 5.1381c1.565 2.685 2.299 5.85 2.299 6.493zm-26.11-13.62 0.357-0.3228 0.715-0.1617c0.489-0.2379 0.98-0.3981 1.499-0.566l-0.285-0.485-0.922 0.1324-0.435 0.4341-0.719 0.1042-0.638 0.2998-0.31 0.1501-0.19 0.2537 0.928 0.1612m-0.714 2.6675 0.714 0.485h0.572v-0.5656l-0.714-0.3233-0.572 0.4039m12.14 2.9908-0.143 0.97 0.785-0.162 0.571-0.565-0.5-0.485c-0.167-0.447-0.36-0.865-0.57-1.293h-0.428v0.484l0.285 0.323v0.728m-0.285 0.163-0.286-0.729-0.501 0.163 0.144 0.888 0.643-0.322" fill="url(#radialGradient636)"/>
 <path stroke="url(#radialGradient293)" d="m42.975 23.486c0 10.165-8.241 18.406-18.406 18.406s-18.406-8.241-18.406-18.406c0.0004-10.166 8.241-18.406 18.406-18.406 10.165-0.0001 18.406 8.24 18.406 18.406z" fill="none"/>
</svg>
