<?xml version="1.0" encoding="utf-8"?>
<!-- Generator: Adobe Illustrator 15.1.0, SVG Export Plug-In . SVG Version: 6.00 Build 0)  -->
<!DOCTYPE svg PUBLIC "-//W3C//DTD SVG 1.1//EN" "http://www.w3.org/Graphics/SVG/1.1/DTD/svg11.dtd">
<svg version="1.1"
	 id="svg1800" xmlns:svg="http://www.w3.org/2000/svg" inkscape:output_extension="org.inkscape.output.svg.inkscape" xmlns:ns="http://creativecommons.org/ns#" xmlns:dc="http://purl.org/dc/elements/1.1/" xmlns:cc="http://web.resource.org/cc/" xmlns:rdf="http://www.w3.org/1999/02/22-rdf-syntax-ns#" xmlns:sodipodi="http://sodipodi.sourceforge.net/DTD/sodipodi-0.dtd" xmlns:inkscape="http://www.inkscape.org/namespaces/inkscape" sodipodi:docname="emblem-base.svg" sodipodi:docbase="C:\Documents and Settings\HP_Administrator\My Documents\My SVGs\My SVG Tango Icons" inkscape:version="0.45.1" sodipodi:version="0.32"
	 xmlns="http://www.w3.org/2000/svg" xmlns:xlink="http://www.w3.org/1999/xlink" x="0px" y="0px" width="48px" height="48px"
	 viewBox="0 0 48 48" enable-background="new 0 0 48 48" xml:space="preserve">
<defs>
	
	
		<inkscape:perspective  id="perspective17" sodipodi:type="inkscape:persp3d" inkscape:vp_x="0 : 24 : 1" inkscape:vp_y="0 : 1000 : 0" inkscape:vp_z="48 : 24 : 1" inkscape:persp3d-origin="24 : 16 : 1">
		</inkscape:perspective>
</defs>
<sodipodi:namedview  fill="#edd400" id="base" pagecolor="#ffffff" bordercolor="#666666" borderopacity="0.20392157" inkscape:zoom="11.313708" inkscape:cx="29.497165" inkscape:cy="29.06398" showgrid="false" inkscape:pageopacity="0.0" inkscape:pageshadow="2" inkscape:current-layer="layer1" inkscape:grid-bbox="true" inkscape:document-units="px" inkscape:showpageshadow="false" inkscape:window-width="872" inkscape:window-height="818" inkscape:window-x="370" inkscape:window-y="30">
	</sodipodi:namedview>
<g id="layer1" inkscape:label="Layer 1" inkscape:groupmode="layer">
	
		<radialGradient id="path3099_1_" cx="-487.8145" cy="432.8789" r="9.688" gradientTransform="matrix(2.1829 0 0 0.7675 1089.1381 -290.8531)" gradientUnits="userSpaceOnUse">
		<stop  offset="0" style="stop-color:#000000"/>
		<stop  offset="1" style="stop-color:#000000;stop-opacity:0"/>
	</radialGradient>
	
		<path id="path3099" sodipodi:ry="3.4062500" sodipodi:rx="9.6875000" sodipodi:cy="25.531250" sodipodi:cx="17.312500" sodipodi:type="arc" opacity="0.4091" fill="url(#path3099_1_)" enable-background="new    " d="
		M45.436,41.383c0,4.105-9.469,7.436-21.146,7.436c-11.679,0-21.147-3.329-21.147-7.436c0-4.107,9.468-7.436,21.147-7.436
		C35.967,33.947,45.436,37.275,45.436,41.383z"/>
	
		<path id="path1650" sodipodi:ry="21.213203" sodipodi:rx="22.008699" sodipodi:cy="23.428040" sodipodi:cx="24.130018" sodipodi:type="arc" fill="#F57900" stroke="#914900" stroke-width="0.9821" stroke-linecap="round" stroke-linejoin="round" d="
		M45.088,21.404c0,11.482-9.309,20.79-20.79,20.79c-11.482,0-20.791-9.308-20.791-20.79l0,0c0-11.482,9.308-20.79,20.791-20.79
		C35.779,0.614,45.088,9.922,45.088,21.404L45.088,21.404z"/>
	
		<path id="path3392" sodipodi:ry="21.213203" sodipodi:rx="22.008699" sodipodi:cy="23.428040" sodipodi:cx="24.130018" sodipodi:type="arc" fill="none" stroke="#FCAF3E" stroke-width="0.9821" stroke-linecap="round" stroke-linejoin="round" d="
		M44.555,21.313c0,11.111-9.006,20.117-20.117,20.117S4.32,32.424,4.32,21.313l0,0c0-11.111,9.007-20.118,20.118-20.118
		S44.555,10.202,44.555,21.313L44.555,21.313z"/>
	<path id="path3068" sodipodi:nodetypes="czssc" fill="#FFFEFF" fill-opacity="0.2139" d="M43.676,20.477
		c0,10.832-6.052-4.306-18.674,0.387C12.279,25.593,4.435,31.309,4.435,20.477c0-10.831,8.79-19.621,19.621-19.621
		C34.887,0.856,43.676,9.646,43.676,20.477z"/>
</g>
<path id="path2844" sodipodi:nodetypes="csscccscccscczzzz" display="none" fill="#FFFFFF" stroke="#3063A3" stroke-width="2" stroke-linecap="round" stroke-miterlimit="10" d="
	M29.143,7.814c5.416,0,9.812,4.395,9.812,9.81c0,5.416-4.396,9.812-9.812,9.812c-2.313,0-4.357-0.92-6.037-2.265
	c0.137,0.67,0.052,1.354-0.503,1.836l-7.296,6.341c-0.82,0.713-2.054,0.618-2.767-0.201c-0.713-0.82-0.62-2.056,0.201-2.769
	l7.296-6.338c0.446-0.389,0.992-0.504,1.533-0.428c-1.321-1.672-2.238-3.692-2.238-5.988C19.332,12.209,23.728,7.814,29.143,7.814z
	 M29.193,8.63c-5.084,0-8.844,3.186-8.844,8.844c0,5.772,3.869,8.844,8.844,8.844c4.858,0,8.844-3.646,8.844-8.844
	C38.037,12.162,34.162,8.63,29.193,8.63z"/>
<path id="path4430" display="none" fill="#FFFFFF" d="M29.159,7.772c5.433,0,9.843,4.41,9.843,9.843c0,5.434-4.41,9.842-9.843,9.842
	c-2.323,0-4.373-0.924-6.057-2.271c0.137,0.672,0.052,1.359-0.505,1.844l-7.318,6.359c-0.824,0.715-2.062,0.621-2.777-0.203
	c-0.714-0.821-0.621-2.061,0.203-2.774l7.318-6.36c0.448-0.389,0.996-0.505,1.539-0.43c-1.326-1.676-2.246-3.703-2.246-6.006
	C19.316,12.182,23.727,7.772,29.159,7.772z M29.21,9.892c-4.181,0-7.571,3.393-7.571,7.571c0,4.178,3.392,7.572,7.571,7.572
	s7.571-3.393,7.571-7.572C36.781,13.284,33.389,9.892,29.21,9.892z"/>
<linearGradient id="path4450_1_" gradientUnits="userSpaceOnUse" x1="-793.7075" y1="-452.3975" x2="-794.4993" y2="-440.2561">
	<stop  offset="0" style="stop-color:#FFFFFF"/>
	<stop  offset="0.5" style="stop-color:#FFFFFF;stop-opacity:0.219"/>
	<stop  offset="1" style="stop-color:#FFFFFF"/>
</linearGradient>
<path id="path4450" sodipodi:ry="11.048544" sodipodi:rx="11.048544" sodipodi:cy="18.920233" sodipodi:cx="17.500893" sodipodi:type="arc" display="none" fill="none" stroke="url(#path4450_1_)" stroke-width="1.2064" stroke-linecap="round" stroke-miterlimit="10" d="
	M20.152,17.295c0,5.058,4.1,9.158,9.159,9.158c5.058,0,9.157-4.1,9.157-9.158s-4.101-9.158-9.157-9.158
	C24.252,8.137,20.152,12.237,20.152,17.295z"/>
<radialGradient id="path4452_1_" cx="-74.0117" cy="276.4785" r="8.3087" gradientTransform="matrix(0.9306 0 0 0.9306 97.6143 -224.267)" gradientUnits="userSpaceOnUse">
	<stop  offset="0" style="stop-color:#729FCF;stop-opacity:0.2078"/>
	<stop  offset="1" style="stop-color:#729FCF;stop-opacity:0.6762"/>
</radialGradient>
<path id="path4452" sodipodi:ry="8.3085051" sodipodi:rx="8.3085051" sodipodi:cy="18.478292" sodipodi:cx="17.589281" sodipodi:type="arc" display="none" fill="url(#path4452_1_)" stroke="#3063A3" stroke-width="1.0746" stroke-linecap="round" stroke-miterlimit="10" d="
	M21.578,17.396c-0.002,4.271,3.459,7.735,7.729,7.735c4.271,0.002,7.733-3.458,7.734-7.729c0-0.002,0-0.004,0-0.006
	c0.001-4.27-3.459-7.732-7.729-7.734c-4.271-0.001-7.732,3.458-7.734,7.73C21.578,17.393,21.578,17.395,21.578,17.396z"/>
<radialGradient id="path4462_1_" cx="-408.3638" cy="-5.375" r="6.6561" gradientTransform="matrix(1.7253 0 0 1.4985 730.3756 33.2897)" gradientUnits="userSpaceOnUse">
	<stop  offset="0" style="stop-color:#FFFFFF"/>
	<stop  offset="1" style="stop-color:#FFFFFF;stop-opacity:0.2476"/>
</radialGradient>
<path id="path4462" display="none" opacity="0.8342" fill="url(#path4462_1_)" enable-background="new    " d="M29.456,10.644
	c3.465,0,6.271,2.807,6.271,6.271c0,1-0.278,1.921-0.695,2.761c-0.833,0.308-1.719,0.517-2.658,0.517
	c-4.105,0-7.387-3.235-7.639-7.277C25.885,11.554,27.535,10.644,29.456,10.644z"/>
<g id="layer1_1_" inkscape:label="Layer 1" inkscape:groupmode="layer" display="none">
	
		<radialGradient id="path5331_1_" cx="-32.5015" cy="1657.1807" r="9.7146" gradientTransform="matrix(0.8881 0 0 0.3177 43.4637 -491.2062)" gradientUnits="userSpaceOnUse">
		<stop  offset="0" style="stop-color:#000000"/>
		<stop  offset="1" style="stop-color:#000000;stop-opacity:0"/>
	</radialGradient>
	
		<path id="path5331" sodipodi:ry="6.3639612" sodipodi:rx="12.727922" sodipodi:cy="34.299805" sodipodi:cx="21.743534" sodipodi:type="arc" opacity="0.15" fill="url(#path5331_1_)" enable-background="new    " d="
		M23.225,35.212c0,1.674-3.93,3.032-8.779,3.032c-4.849,0-8.778-1.358-8.778-3.032c0-1.675,3.93-3.03,8.778-3.03
		C19.294,32.182,23.225,33.537,23.225,35.212L23.225,35.212z"/>
	
		<radialGradient id="path6769_1_" cx="1146.7139" cy="5098.1426" r="9.7154" gradientTransform="matrix(0.3475 0 0 0.12 -384.7518 -576.0328)" gradientUnits="userSpaceOnUse">
		<stop  offset="0" style="stop-color:#000000"/>
		<stop  offset="1" style="stop-color:#000000;stop-opacity:0"/>
	</radialGradient>
	
		<path id="path6769" sodipodi:ry="6.3639612" sodipodi:rx="12.727922" sodipodi:cy="34.299805" sodipodi:cx="21.743534" sodipodi:type="arc" opacity="0.2" fill="url(#path6769_1_)" enable-background="new    " d="
		M17.118,35.614c0,0.633-1.539,1.146-3.435,1.146c-1.897,0-3.435-0.513-3.435-1.146c0-0.632,1.538-1.146,3.435-1.146
		C15.579,34.471,17.118,34.982,17.118,35.614L17.118,35.614z"/>
	<g id="g6432" transform="matrix(0.7071068,0.7071068,-0.7071068,0.7071068,0.4039197,-30.117395)">
		
			<linearGradient id="rect5288_1_" gradientUnits="userSpaceOnUse" x1="491.1205" y1="-212.2122" x2="498.4836" y2="-212.1877" gradientTransform="matrix(0.8213 -0.0034 -0.0028 1.0095 -351.5822 248.1141)">
			<stop  offset="0" style="stop-color:#729FCF"/>
			<stop  offset="1" style="stop-color:#295EAD"/>
		</linearGradient>
		
			<path id="rect5288" display="inline" fill="url(#rect5288_1_)" stroke="#204A87" stroke-linecap="round" stroke-linejoin="round" d="
			M52.892,24.339l0.648-0.003c1.716-0.008,3.106,1.236,3.102,2.779l-0.021,8.152c-0.005,1.543-1.401,2.798-3.119,2.805l-0.647,0.003
			c-1.719,0.006-3.106-1.236-3.103-2.78l0.022-8.151C49.779,25.602,51.175,24.346,52.892,24.339z"/>
		
			<linearGradient id="rect5292_1_" gradientUnits="userSpaceOnUse" x1="-597.8793" y1="-220.8718" x2="-581.4922" y2="-208.7682" gradientTransform="matrix(1 0 0 1 0 1.037684e-005)">
			<stop  offset="0" style="stop-color:#FFFFFF"/>
			<stop  offset="1" style="stop-color:#FFFFFF;stop-opacity:0"/>
		</linearGradient>
		
			<path id="rect5292" display="inline" opacity="0.5" fill="none" stroke="url(#rect5292_1_)" stroke-linecap="round" stroke-linejoin="round" enable-background="new    " d="
			M52.879,25.13l0.656-0.003c1.298-0.007,2.347,0.876,2.344,1.97l-0.026,8.217c-0.001,1.095-1.056,1.99-2.354,1.995l-0.655,0.003
			c-1.297,0.007-2.349-0.877-2.346-1.971l0.025-8.217C50.526,26.029,51.581,25.136,52.879,25.13z"/>
		
			<linearGradient id="path5286_1_" gradientUnits="userSpaceOnUse" x1="41.4387" y1="433.6572" x2="42.5015" y2="434.7272" gradientTransform="matrix(0.7118 -0.7118 0.7071 0.7071 -283.5466 -262.319)">
			<stop  offset="0" style="stop-color:#EEEEEC"/>
			<stop  offset="1" style="stop-color:#A2A298"/>
		</linearGradient>
		
			<path id="path5286" sodipodi:nodetypes="ccccccccc" display="inline" fill="url(#path5286_1_)" stroke="#888A85" stroke-linecap="round" stroke-linejoin="round" d="
			M51.105,3.726l0.275,3.781l0.753,1.304l-0.006,16.482c0.067,1.147,2.164,1.208,2.297-0.008l0.019-16.464l0.771-0.992l0.251-4.091
			L51.105,3.726z"/>
		
			<linearGradient id="rect2804_1_" gradientUnits="userSpaceOnUse" x1="967.3899" y1="-216.0861" x2="965.1578" y2="-216.2985" gradientTransform="matrix(0.5817 -0.0025 -0.0029 0.6788 -511.9069 180.5377)">
			<stop  offset="0" style="stop-color:#FFFFFF"/>
			<stop  offset="1" style="stop-color:#FFFFFF;stop-opacity:0.2938"/>
		</linearGradient>
		<path id="rect2804" display="inline" opacity="0.3" fill="url(#rect2804_1_)" enable-background="new    " d="M51.111,27.772
			l0.067-0.001c0.281-0.002,0.505,0.546,0.504,1.223l-0.025,5.652c-0.003,0.676-0.233,1.225-0.514,1.227h-0.066
			c-0.28,0.001-0.507-0.546-0.504-1.223l0.026-5.652C50.599,28.321,50.83,27.773,51.111,27.772z"/>
		
			<linearGradient id="rect5290_1_" gradientUnits="userSpaceOnUse" x1="1275.187" y1="-213.9496" x2="1276.666" y2="-213.9496" gradientTransform="matrix(0.4888 -0.0025 -0.0025 0.6788 -570.8221 180.4497)">
			<stop  offset="0" style="stop-color:#0C1D35"/>
			<stop  offset="1" style="stop-color:#FFFFFF;stop-opacity:0.2938"/>
		</linearGradient>
		<path id="rect5290" display="inline" opacity="0.3" fill="url(#rect5290_1_)" enable-background="new    " d="M53.228,27.702
			L53.228,27.702c0.413-0.002,0.745,0.545,0.742,1.219l-0.021,5.841c-0.003,0.675-0.339,1.225-0.75,1.228l0,0
			c-0.413,0.001-0.745-0.545-0.743-1.221l0.022-5.84C52.481,28.254,52.817,27.705,53.228,27.702z"/>
		
			<linearGradient id="rect5398_1_" gradientUnits="userSpaceOnUse" x1="351.4386" y1="-217.1171" x2="352.9639" y2="-217.1105" gradientTransform="matrix(1 -0.0042 -0.0042 1 -297.3053 250.6284)">
			<stop  offset="0" style="stop-color:#000000"/>
			<stop  offset="1" style="stop-color:#000000;stop-opacity:0"/>
		</linearGradient>
		<path id="rect5398" display="inline" opacity="0.25" fill="url(#rect5398_1_)" enable-background="new    " d="M55.237,27.771
			l0.067,0c0.281-0.002,0.506,0.546,0.503,1.222l-0.026,5.652c-0.001,0.675-0.233,1.225-0.512,1.227l-0.067,0
			c-0.283,0-0.507-0.544-0.505-1.222l0.026-5.653C54.725,28.32,54.956,27.773,55.237,27.771z"/>
		
			<linearGradient id="path5450_1_" gradientUnits="userSpaceOnUse" x1="348.845" y1="-248.1138" x2="348.845" y2="-243.9465" gradientTransform="matrix(1 0 0 1 -296.1943 253.4233)">
			<stop  offset="0" style="stop-color:#EEEEEC"/>
			<stop  offset="1" style="stop-color:#EEEEEC;stop-opacity:0"/>
		</linearGradient>
		<path id="path5450" sodipodi:nodetypes="ccccccccc" display="inline" fill="url(#path5450_1_)" d="M51.514,4.108L51.752,7.4
			l0.715,1.215c0.032,0.059,0.05,0.124,0.048,0.192l1.551,0.023c-0.003-0.086,0.023-0.171,0.071-0.239l0.693-0.93l0.239-3.555
			C54.47,4.107,52.114,4.107,51.514,4.108z"/>
	</g>
	
		<radialGradient id="path6010_1_" cx="-786.0703" cy="-81.2207" r="3.9246" gradientTransform="matrix(0.7495 -0.7495 1.8568 1.8568 763.4996 -416.2602)" gradientUnits="userSpaceOnUse">
		<stop  offset="0" style="stop-color:#000000"/>
		<stop  offset="1" style="stop-color:#000000;stop-opacity:0"/>
	</radialGradient>
	<path id="path6010" opacity="0.5" fill="url(#path6010_1_)" enable-background="new    " d="M25.49,18.035l-5.726,5.725
		l2.124,2.124l5.725-5.726L25.49,18.035z"/>
	<g id="g6807" transform="translate(-1,0)" display="inline">
		
			<path id="path6765" sodipodi:ry="6.3639612" sodipodi:rx="12.727922" sodipodi:cy="34.299805" sodipodi:cx="21.743534" sodipodi:type="arc" display="none" opacity="0.15" fill="none" stroke="#FFFFFF" stroke-miterlimit="10" enable-background="new    " d="
			M42.544,35.212c0,1.674-3.76,3.032-8.396,3.032c-4.639,0-8.396-1.358-8.396-3.032c0-1.675,3.76-3.03,8.396-3.03
			C38.784,32.182,42.544,33.537,42.544,35.212L42.544,35.212z"/>
		
			<path id="path6773" sodipodi:ry="6.3639612" sodipodi:rx="12.727922" sodipodi:cy="34.299805" sodipodi:cx="21.743534" sodipodi:type="arc" display="none" opacity="0.2" fill="none" stroke="#FFFFFF" stroke-miterlimit="10" enable-background="new    " d="
			M37.965,35.614c0,0.633-1.538,1.146-3.436,1.146s-3.436-0.513-3.436-1.146c0-0.632,1.537-1.146,3.436-1.146
			C36.427,34.471,37.965,34.982,37.965,35.614L37.965,35.614z"/>
		<g id="g6739" transform="translate(-1.697983,0.2707704)">
			<g id="g6553" transform="matrix(0.7071068,-0.7071068,0.7071068,0.7071068,-57.460697,74.506628)">
				
					<path id="path6491" sodipodi:nodetypes="csccsccscccccc" fill="none" stroke="#FFFFFF" stroke-linecap="round" stroke-linejoin="round" d="
					M93.808,4.682c-2.017,0.884-3.435,2.904-3.434,5.248c-0.001,2.191,1.244,4.095,3.053,5.057l0.001,21.958
					c0.001,1.48,1.192,2.671,2.671,2.671c1.48,0.001,2.672-1.191,2.671-2.671l0-21.957c1.81-0.963,3.053-2.866,3.053-5.057
					c0-2.344-1.417-4.363-3.435-5.248v4.532l-1.312,1.527l-1.956,0l-1.312-1.527V4.682z"/>
				
					<path id="path6505" sodipodi:nodetypes="cscccscccscccccccccc" display="none" fill="none" stroke="#FFFFFF" stroke-linecap="round" d="
					M93.02,6.089c-1.127,0.908-1.859,2.28-1.86,3.841c0,1.899,1.059,3.533,2.624,4.365c0.262,0.132,0.428,0.399,0.43,0.693l0,21.958
					c0.002,1.063,0.822,1.883,1.884,1.884c1.064-0.002,1.883-0.821,1.885-1.885l-0.001-21.957c0.001-0.293,0.167-0.56,0.43-0.692
					c1.565-0.832,2.623-2.467,2.622-4.365c0.002-1.562-0.732-2.934-1.86-3.84v3.124c-0.002,0.185-0.07,0.363-0.191,0.501
					l-1.312,1.527c-0.145,0.179-0.364,0.285-0.596,0.286H95.12c-0.231-0.001-0.451-0.107-0.596-0.285l-1.312-1.528
					c-0.121-0.138-0.188-0.316-0.191-0.5L93.02,6.089z"/>
				
					<path id="path6507" sodipodi:ry="1.5" sodipodi:rx="1.5" sodipodi:cy="42.5" sodipodi:cx="94" sodipodi:type="arc" fill="none" stroke="#FFFFFF" stroke-linecap="round" d="
					M97.243,36.945c0.001,0.633-0.511,1.145-1.146,1.146c-0.633,0.001-1.145-0.511-1.145-1.145c0-0.633,0.512-1.145,1.146-1.146
					C96.732,35.8,97.244,36.311,97.243,36.945z"/>
				
					<path id="rect6533" display="none" opacity="0.2311" fill="none" stroke="#FFFFFF" stroke-miterlimit="10" enable-background="new    " d="
					M95.898,16.782l0.394,0.001c0.733,0.001,1.327,0.597,1.327,1.333l0.009,14.129c-0.003,0.735-0.592,1.331-1.329,1.331h-0.394
					c-0.733,0-1.328-0.597-1.329-1.332l-0.005-14.13C94.571,17.377,95.165,16.781,95.898,16.782z"/>
			</g>
			<path id="path6573" sodipodi:nodetypes="cccccccccc" display="none" fill="none" stroke="#FFFFFF" stroke-linecap="round" d="
				M16.972,8.685l2.209,2.209c0.129,0.132,0.208,0.306,0.219,0.489l0.152,2.008c0.024,0.229-0.056,0.459-0.219,0.624l-1.383,1.383
				c-0.164,0.163-0.394,0.243-0.623,0.22l-2.009-0.153c-0.183-0.012-0.356-0.09-0.489-0.219l-2.21-2.209"/>
			
				<path id="path6651" sodipodi:nodetypes="ccccccccsccccc" display="none" opacity="0.5905" fill="none" stroke="#FFFFFF" stroke-miterlimit="10" enable-background="new    " d="
				M17.542,8.31c-0.45,0.001-0.897,0.058-1.335,0.167l2.695,2.695c0.068,0.068,0.112,0.143,0.12,0.238l0.167,2.004
				c0.01,0.119-0.034,0.25-0.119,0.334l-1.216,1.24c1.644,0.39,2.987,1.113,4.747,0.167c0.558-1.823,0.106-3.9-1.336-5.343
				C20.234,8.784,18.889,8.306,17.542,8.31z M12.413,12.269c-0.301,1.206-0.206,2.492,0.334,3.626
				c0.859-0.52,1.62-0.821,2.313-0.978L12.413,12.269z"/>
		</g>
	</g>
</g>
<g id="Icons">
	<g id="bullet-list-ltr">
		<path id="bottom_dot" fill="#FFFFFF" d="M14.715,19.229h-1.389c-0.766,0-1.389,0.621-1.389,1.389v1.389
			c0,0.768,0.623,1.389,1.389,1.389h1.389c0.766,0,1.389-0.621,1.389-1.389v-1.389C16.104,19.85,15.481,19.229,14.715,19.229z"/>
		<path id="middle_dot" fill="#FFFFFF" d="M14.715,28.951h-1.389c-0.766,0-1.389,0.621-1.389,1.389v1.389
			c0,0.768,0.623,1.389,1.389,1.389h1.389c0.766,0,1.389-0.621,1.389-1.389V30.34C16.104,29.572,15.481,28.951,14.715,28.951z"/>
		<path id="top_dot" fill="#FFFFFF" d="M14.715,9.507h-1.389c-0.766,0-1.389,0.621-1.389,1.389v1.389
			c0,0.768,0.623,1.389,1.389,1.389h1.389c0.766,0,1.389-0.621,1.389-1.389v-1.389C16.104,10.127,15.481,9.507,14.715,9.507z"/>
		<path id="bottom_line" fill="#FFFFFF" d="M35.549,28.951H20.271c-0.767,0-1.389,0.621-1.389,1.389v1.389
			c0,0.768,0.623,1.389,1.389,1.389h15.278c0.766,0,1.389-0.621,1.389-1.389V30.34C36.938,29.572,36.314,28.951,35.549,28.951z"/>
		<path id="middle_line" fill="#FFFFFF" d="M35.549,19.229H20.271c-0.767,0-1.389,0.621-1.389,1.389v1.389
			c0,0.768,0.623,1.389,1.389,1.389h15.278c0.766,0,1.389-0.621,1.389-1.389v-1.389C36.938,19.85,36.314,19.229,35.549,19.229z"/>
		<path id="top_line" fill="#FFFFFF" d="M35.549,9.507H20.271c-0.767,0-1.389,0.621-1.389,1.389v1.389
			c0,0.768,0.623,1.389,1.389,1.389h15.278c0.766,0,1.389-0.621,1.389-1.389v-1.389C36.938,10.127,36.314,9.507,35.549,9.507z"/>
	</g>
</g>
<g id="Guides" display="none">
</g>
</svg>
