<?xml version="1.0" encoding="UTF-8" standalone="no"?>
<!-- Created with Inkscape (http://www.inkscape.org/) -->
<svg
   xmlns:dc="http://purl.org/dc/elements/1.1/"
   xmlns:cc="http://web.resource.org/cc/"
   xmlns:rdf="http://www.w3.org/1999/02/22-rdf-syntax-ns#"
   xmlns:svg="http://www.w3.org/2000/svg"
   xmlns="http://www.w3.org/2000/svg"
   xmlns:xlink="http://www.w3.org/1999/xlink"
   xmlns:sodipodi="http://sodipodi.sourceforge.net/DTD/sodipodi-0.dtd"
   xmlns:inkscape="http://www.inkscape.org/namespaces/inkscape"
   width="48"
   height="48"
   id="svg2307"
   sodipodi:version="0.32"
   inkscape:version="0.45"
   sodipodi:docname="audio-x-generic.svg"
   sodipodi:docbase="/home/dobey/Projects/gnome-icon-theme/scalable/mimetypes"
   inkscape:output_extension="org.inkscape.output.svg.inkscape"
   version="1.0">
  <defs
     id="defs2309">
    <linearGradient
       id="linearGradient3290">
      <stop
         style="stop-color:#3465a4;stop-opacity:1"
         offset="0"
         id="stop3292" />
      <stop
         style="stop-color:#729fcf;stop-opacity:1"
         offset="1"
         id="stop3294" />
    </linearGradient>
    <linearGradient
       inkscape:collect="always"
       id="linearGradient3278">
      <stop
         style="stop-color:#ffffff;stop-opacity:1;"
         offset="0"
         id="stop3280" />
      <stop
         style="stop-color:#ffffff;stop-opacity:0;"
         offset="1"
         id="stop3282" />
    </linearGradient>
    <linearGradient
       inkscape:collect="always"
       id="linearGradient3261">
      <stop
         style="stop-color:#ffffff;stop-opacity:1;"
         offset="0"
         id="stop3263" />
      <stop
         style="stop-color:#ffffff;stop-opacity:0;"
         offset="1"
         id="stop3265" />
    </linearGradient>
    <linearGradient
       id="linearGradient3241">
      <stop
         id="stop3243"
         offset="0"
         style="stop-color:#729fcf;stop-opacity:1" />
      <stop
         id="stop3245"
         offset="1"
         style="stop-color:#729fcf;stop-opacity:0" />
    </linearGradient>
    <linearGradient
       inkscape:collect="always"
       id="linearGradient2397">
      <stop
         style="stop-color:#ffffff;stop-opacity:1;"
         offset="0"
         id="stop2399" />
      <stop
         style="stop-color:#ffffff;stop-opacity:0;"
         offset="1"
         id="stop2401" />
    </linearGradient>
    <linearGradient
       id="linearGradient3232"
       inkscape:collect="always">
      <stop
         id="stop3234"
         offset="0"
         style="stop-color:#000000;stop-opacity:1;" />
      <stop
         id="stop3236"
         offset="1"
         style="stop-color:#000000;stop-opacity:0;" />
    </linearGradient>
    <radialGradient
       inkscape:collect="always"
       xlink:href="#linearGradient3232"
       id="radialGradient2227"
       gradientUnits="userSpaceOnUse"
       gradientTransform="matrix(1,0,0,0.4166667,0,11.375)"
       cx="10"
       cy="19.5"
       fx="10"
       fy="19.5"
       r="6" />
    <radialGradient
       inkscape:collect="always"
       xlink:href="#linearGradient3241"
       id="radialGradient2231"
       gradientUnits="userSpaceOnUse"
       gradientTransform="matrix(0.9163208,0,2.4558126e-7,0.2494089,2.7809112,31.305092)"
       cx="31.489759"
       cy="38.486931"
       fx="31.489759"
       fy="38.486931"
       r="6.1868596" />
    <linearGradient
       inkscape:collect="always"
       xlink:href="#linearGradient2397"
       id="linearGradient3249"
       gradientUnits="userSpaceOnUse"
       x1="32.195919"
       y1="39.532585"
       x2="37.485153"
       y2="43.330803" />
    <linearGradient
       inkscape:collect="always"
       xlink:href="#linearGradient3261"
       id="linearGradient3267"
       x1="27.5"
       y1="24.120338"
       x2="27.5"
       y2="37.481789"
       gradientUnits="userSpaceOnUse" />
    <linearGradient
       inkscape:collect="always"
       xlink:href="#linearGradient3278"
       id="linearGradient3284"
       x1="31.25"
       y1="5.25"
       x2="28.0625"
       y2="9.3125"
       gradientUnits="userSpaceOnUse" />
    <linearGradient
       inkscape:collect="always"
       xlink:href="#linearGradient3290"
       id="linearGradient3296"
       x1="31.819805"
       y1="15.91503"
       x2="36.150833"
       y2="4.6897092"
       gradientUnits="userSpaceOnUse"
       gradientTransform="translate(-2,0)" />
  </defs>
  <sodipodi:namedview
     id="base"
     pagecolor="#ffffff"
     bordercolor="#666666"
     borderopacity="1.0"
     inkscape:pageopacity="0.0"
     inkscape:pageshadow="2"
     inkscape:zoom="1"
     inkscape:cx="19.212971"
     inkscape:cy="24.790192"
     inkscape:current-layer="layer1"
     showgrid="false"
     inkscape:grid-bbox="true"
     inkscape:document-units="px"
     showborder="false"
     gridspacingx="0.5px"
     gridspacingy="0.5px"
     gridempspacing="2"
     inkscape:grid-points="true"
     inkscape:showpageshadow="false"
     inkscape:window-width="872"
     inkscape:window-height="619"
     inkscape:window-x="323"
     inkscape:window-y="338"
     width="48px"
     height="48px" />
  <metadata
     id="metadata2312">
    <rdf:RDF>
      <cc:Work
         rdf:about="">
        <dc:format>image/svg+xml</dc:format>
        <dc:type
           rdf:resource="http://purl.org/dc/dcmitype/StillImage" />
      </cc:Work>
    </rdf:RDF>
  </metadata>
  <g
     id="layer1"
     inkscape:label="Layer 1"
     inkscape:groupmode="layer">
    <path
       transform="matrix(2.9999999,0,0,2.3437499,-9.9999998,-3.843749)"
       d="M 16 19.5 A 6 2.5 0 1 1  4,19.5 A 6 2.5 0 1 1  16 19.5 z"
       sodipodi:ry="2.5"
       sodipodi:rx="6"
       sodipodi:cy="19.5"
       sodipodi:cx="10"
       id="path3410"
       style="opacity:0.29501917;fill:url(#radialGradient2227);fill-opacity:1;stroke:none;stroke-width:1;stroke-linecap:round;stroke-linejoin:round;stroke-miterlimit:4;stroke-dasharray:none;stroke-dashoffset:0;stroke-opacity:0.61596961"
       sodipodi:type="arc" />
    <path
       style="fill:url(#linearGradient3296);fill-opacity:1;stroke:#204a87;stroke-width:1;stroke-linecap:round;stroke-linejoin:round;stroke-miterlimit:4;stroke-dasharray:none;stroke-dashoffset:0;stroke-opacity:1"
       d="M 24.5,2.5 L 24.5,36.71875 C 22.799316,35.960332 20.518321,35.5 18,35.5 C 12.756,35.5 8.5,37.516 8.5,40 C 8.5,42.484 12.756,44.499998 18,44.5 C 23.244,44.5 27.5,42.483999 27.5,40 L 27.5,12.5 C 27.5,8.7416759 29.900111,10.850167 32,14 C 34,17 36.5,19.5 42.5,15.5 C 33.5,17.5 35.5,2.5 27.5,2.5 L 24.5,2.5 z "
       id="path3404"
       sodipodi:nodetypes="ccsssccsccc" />
    <path
       sodipodi:type="arc"
       style="opacity:0.91570877;color:#000000;fill:url(#radialGradient2231);fill-opacity:1;fill-rule:nonzero;stroke:none;stroke-width:0.59303617;stroke-linecap:square;stroke-linejoin:miter;marker:none;marker-start:none;marker-mid:none;marker-end:none;stroke-miterlimit:4;stroke-dasharray:none;stroke-dashoffset:0;stroke-opacity:1;visibility:visible;display:inline;overflow:visible"
       id="path2385"
       sodipodi:cx="33.786095"
       sodipodi:cy="41.87933"
       sodipodi:rx="5.6637621"
       sodipodi:ry="1.8473293"
       d="M 39.449857 41.87933 A 5.6637621 1.8473293 0 1 1  28.122333,41.87933 A 5.6637621 1.8473293 0 1 1  39.449857 41.87933 z"
       transform="matrix(1.5890498,0,0,2.1652883,-35.687788,-50.680822)" />
    <path
       sodipodi:type="arc"
       style="opacity:0.25;color:#000000;fill:none;fill-opacity:1;fill-rule:nonzero;stroke:url(#linearGradient3249);stroke-width:0.59303617;stroke-linecap:square;stroke-linejoin:miter;marker:none;marker-start:none;marker-mid:none;marker-end:none;stroke-miterlimit:4;stroke-dasharray:none;stroke-dashoffset:0;stroke-opacity:1;visibility:visible;display:inline;overflow:visible"
       id="path3247"
       sodipodi:cx="33.786095"
       sodipodi:cy="41.87933"
       sodipodi:rx="5.6637621"
       sodipodi:ry="1.8473293"
       d="M 39.449857 41.87933 A 5.6637621 1.8473293 0 1 1  28.122333,41.87933 A 5.6637621 1.8473293 0 1 1  39.449857 41.87933 z"
       transform="matrix(1.5007692,0,0,1.8946268,-32.70513,-39.345701)" />
    <g
       id="g3286"
       style="opacity:0.25"
       transform="translate(-2,0)">
      <path
         id="path3251"
         d="M 27.5,38.5 L 27.5,3.5"
         style="opacity:1;fill:none;fill-opacity:1;fill-rule:evenodd;stroke:url(#linearGradient3267);stroke-width:1px;stroke-linecap:square;stroke-linejoin:miter;stroke-opacity:1" />
      <path
         sodipodi:nodetypes="ccccssssscccsscccccssscssssscc"
         id="path3271"
         d="M 27,3 L 27,3.5 L 27,12.5 L 28,12.5 C 28,12.147923 28.194662,11.801589 28.5,11.4375 C 28.805338,11.073411 29.20553,10.730796 29.53125,10.375 C 29.710163,10.179567 30.077355,10.006901 30.34375,10 C 30.651415,9.9920298 30.951087,10.078773 31.21875,10.21875 C 32.322016,10.795716 33.359079,12.101119 34.4375,13.71875 C 35.422191,15.195786 36.441262,16.409228 37.875,16.875 C 38.857011,17.165906 39.820479,17.317255 42.359835,16.165403 C 40.841585,15.987171 40.166996,15.521175 39.15625,14.65625 C 37.850417,13.435211 37.005356,11.699035 36.1875,9.9375 C 35.368335,8.1731452 34.581634,6.4247645 33.5625,5.125 C 32.556138,3.8415248 31.328478,3 29.5,3 L 27.5,3 L 27,3 z M 28,4 L 29.5,4 C 31.046522,4 31.83722,4.5858744 32.75,5.75 C 33.650008,6.8978363 34.428257,8.6050922 35.25,10.375 C 36.073052,12.147727 36.980281,14.014435 38.46875,15.40625 C 38.671929,15.596236 39.217621,15.885778 39.5,16 C 39.077763,16.147257 38.447708,16.03704 38.1875,15.9375 C 37.13984,15.53673 36.194193,14.57254 35.25,13.15625 C 34.147705,11.502807 33.059218,10.077448 31.65625,9.34375 C 31.297355,9.1560614 30.870995,8.9863414 30.34375,9 C 29.775235,9.0147277 29.185805,9.2455899 28.78125,9.6875 C 28.590727,9.8956153 28.286773,10.19987 28,10.5 L 28,4 z "
         style="fill:url(#linearGradient3284);fill-opacity:1;stroke:none;stroke-width:1;stroke-linecap:round;stroke-linejoin:miter;stroke-miterlimit:4;stroke-dashoffset:0;stroke-opacity:1" />
    </g>
  </g>
</svg>
