<?xml version="1.0" encoding="utf-8"?>
<!-- Generator: Adobe Illustrator 15.0.2, SVG Export Plug-In . SVG Version: 6.00 Build 0)  -->
<!DOCTYPE svg PUBLIC "-//W3C//DTD SVG 1.1//EN" "http://www.w3.org/Graphics/SVG/1.1/DTD/svg11.dtd">
<svg version="1.1"
	 id="svg7854" sodipodi:docbase="/home/dobey/Projects/gnome-icon-theme/scalable/status" sodipodi:version="0.32" inkscape:version="0.45" sodipodi:docname="media-playlist-shuffle.svg" inkscape:output_extension="org.inkscape.output.svg.inkscape" inkscape:export-filename="/home/lapo/Icone/gnome-icon-theme/32x32/status/media-playlist-repeat.png" inkscape:export-xdpi="90" inkscape:export-ydpi="90" xmlns:inkscape="http://www.inkscape.org/namespaces/inkscape" xmlns:sodipodi="http://sodipodi.sourceforge.net/DTD/sodipodi-0.dtd" xmlns:rdf="http://www.w3.org/1999/02/22-rdf-syntax-ns#" xmlns:svg="http://www.w3.org/2000/svg" xmlns:cc="http://web.resource.org/cc/" xmlns:dc="http://purl.org/dc/elements/1.1/"
	 xmlns="http://www.w3.org/2000/svg" xmlns:xlink="http://www.w3.org/1999/xlink" x="0px" y="0px" width="34px" height="28px"
	 viewBox="6.5 10.5 34 28" enable-background="new 6.5 10.5 34 28" xml:space="preserve">
<sodipodi:namedview  width="48px" height="48px" gridtolerance="15.1" borderopacity="1" bordercolor="#afafaf" pagecolor="#ffffff" guidetolerance="10" id="base" inkscape:zoom="1" objecttolerance="10" inkscape:pageopacity="0" inkscape:pageshadow="2" inkscape:cx="-75.373225" inkscape:cy="-85.31353" inkscape:document-units="px" inkscape:current-layer="layer1" inkscape:showpageshadow="false" inkscape:window-width="872" inkscape:window-height="971" inkscape:window-x="62" inkscape:window-y="21" showgrid="false" gridempspacing="2" gridspacingx="0.5px" gridspacingy="0.5px" showguides="false" inkscape:grid-points="false" showborder="true" inkscape:guide-bbox="false" inkscape:grid-bbox="true" inkscape:object-paths="false">
	<sodipodi:guide  id="guide7377" orientation="horizontal" position="8.6620581"></sodipodi:guide>
	<sodipodi:guide  id="guide7379" orientation="horizontal" position="6"></sodipodi:guide>
	<sodipodi:guide  id="guide7492" orientation="horizontal" position="36.062446"></sodipodi:guide>
	<sodipodi:guide  id="guide7046" orientation="horizontal" position="51"></sodipodi:guide>
	<sodipodi:guide  id="guide7233" orientation="horizontal" position="-17.5"></sodipodi:guide>
	<sodipodi:guide  id="guide7235" orientation="horizontal" position="-29"></sodipodi:guide>
	<sodipodi:guide  id="guide6795" orientation="horizontal" position="44.547727"></sodipodi:guide>
	<sodipodi:guide  id="guide6797" orientation="horizontal" position="16.970563"></sodipodi:guide>
	<sodipodi:guide  id="guide6914" orientation="horizontal" position="23.511301"></sodipodi:guide>
</sodipodi:namedview>
<g id="layer1" inkscape:label="Layer 1" inkscape:groupmode="layer">
	<g id="g7411" transform="translate(0,50)">
		<g id="g6954" transform="translate(0,-50)" opacity="0.5">
			
				<linearGradient id="path6939_1_" gradientUnits="userSpaceOnUse" x1="15.0229" y1="799.9326" x2="15.0229" y2="792.4983" gradientTransform="matrix(1 0 0 1 8.4854 -768)">
				<stop  offset="0" style="stop-color:#FFFFFF;stop-opacity:0.9708"/>
				<stop  offset="0.25" style="stop-color:#000000;stop-opacity:0.2353"/>
				<stop  offset="0.8" style="stop-color:#000000;stop-opacity:0.2353"/>
				<stop  offset="1" style="stop-color:#000000;stop-opacity:0"/>
			</linearGradient>
			<path id="path6939" sodipodi:nodetypes="ccccscsccccccssccscccsccsccc" fill="url(#path6939_1_)" d="M31.235,37.969
				c-0.71-0.127-1.225-0.748-1.219-1.469v-1.531h-1.531c-2.542,0-5.011-1.068-6.969-2.812c-0.012-0.01-0.02-0.021-0.031-0.031
				c-1.78,1.668-3.979,2.844-6.5,2.844c-3.329,0-4.5,0-4.5,0h-2c-0.809-0.006-1.462-0.66-1.469-1.469v-4
				c0.006-0.809,0.66-1.463,1.469-1.469h2c0,0,1.171,0,4.5,0c0.896,0,1.61-0.288,2.125-0.812c0.514-0.524,0.906-1.353,0.906-2.719
				h6.938c0,1,0.46,1.797,1.25,2.5c0.734,0.654,1.954,1.031,2.281,1.031h1.531V26.5c-0.007-0.559,0.302-1.072,0.798-1.33
				c0.494-0.257,1.092-0.214,1.546,0.111l7,5c0.4,0.276,0.64,0.732,0.64,1.219s-0.239,0.942-0.64,1.219l-7,5
				C32.034,37.951,31.629,38.041,31.235,37.969z"/>
			
				<linearGradient id="path6906_1_" gradientUnits="userSpaceOnUse" x1="15.0229" y1="6.9326" x2="15.0229" y2="-0.5017" gradientTransform="matrix(1 0 0 -1 8.5 24)">
				<stop  offset="0" style="stop-color:#000000;stop-opacity:0.2353"/>
				<stop  offset="0.25" style="stop-color:#FFFFFF"/>
				<stop  offset="0.8" style="stop-color:#FFFFFF"/>
				<stop  offset="1" style="stop-color:#FFFFFF;stop-opacity:0"/>
			</linearGradient>
			<path id="path6906" sodipodi:nodetypes="ccccscsccccccssccscccsccsccc" fill="url(#path6906_1_)" d="M31.25,11.031
				c-0.709,0.127-1.225,0.748-1.219,1.469v1.531H28.5c-2.543,0-5.011,1.068-6.969,2.812c-0.011,0.01-0.02,0.021-0.031,0.031
				c-1.78-1.668-3.979-2.844-6.5-2.844c-3.329,0-4.5,0-4.5,0h-2c-0.809,0.006-1.462,0.66-1.469,1.469v4
				c0.006,0.809,0.66,1.462,1.469,1.469h2c0,0,1.171,0,4.5,0c0.897,0,1.611,0.288,2.125,0.812s0.906,1.353,0.906,2.719h6.938
				c0-1,0.461-1.797,1.25-2.5c0.734-0.654,1.955-1.031,2.281-1.031h1.531V22.5c-0.006,0.558,0.303,1.072,0.797,1.33
				c0.496,0.257,1.094,0.214,1.547-0.111l7-5c0.4-0.276,0.64-0.732,0.64-1.219s-0.239-0.942-0.64-1.219l-7-5
				C32.049,11.049,31.644,10.959,31.25,11.031z"/>
		</g>
		
			<radialGradient id="path6793_1_" cx="-181.2324" cy="115.6318" r="15.5" gradientTransform="matrix(3.9412 0 0 -1.7889 745.2798 187.9753)" gradientUnits="userSpaceOnUse">
			<stop  offset="0" style="stop-color:#D3D7CF"/>
			<stop  offset="1" style="stop-color:#92948F"/>
		</radialGradient>
		<path id="path6793" fill="url(#path6793_1_)" stroke="#41423F" stroke-linecap="square" d="M31.5-13.5v-3h-3
			c-2.122,0-4.247-0.903-5.969-2.438S19.5-22.766,19.5-25.5c0-3.336-2.039-5-4.5-5c-3.329,0-4.5,0-4.5,0h-2v-4h2c0,0,1.171,0,4.5,0
			c4.539,0,8.5,3.792,8.5,9c0,1.465,0.69,2.678,1.719,3.594S27.622-20.5,28.5-20.5h3v-3l7,5L31.5-13.5z"/>
		<linearGradient id="path6854_1_" gradientUnits="userSpaceOnUse" x1="-254.2764" y1="345.9229" x2="-242.6091" y2="331.7807">
			<stop  offset="0" style="stop-color:#EEEEEC"/>
			<stop  offset="1" style="stop-color:#FFFFFF"/>
		</linearGradient>
		
			<path id="path6854" inkscape:original="M 8.5 15.5 L 8.5 19.5 L 10.5 19.5 C 10.5 19.5 11.671618 19.5 15 19.5 C 17.460874 19.5 19.5 21.16397 19.5 24.5 C 19.5 27.234921 20.809478 29.528558 22.53125 31.0625 C 24.253022 32.596442 26.377778 33.499999 28.5 33.5 L 31.5 33.5 L 31.5 36.5 L 38.5 31.5 L 31.5 26.5 L 31.5 29.5 L 28.5 29.5 C 27.622222 29.5 26.246978 29.009808 25.21875 28.09375 C 24.190522 27.177692 23.5 25.965079 23.5 24.5 C 23.5 19.29144 19.539126 15.5 15 15.5 C 11.671618 15.5 10.5 15.5 10.5 15.5 L 8.5 15.5 z " inkscape:radius="-0.8125" sodipodi:type="inkscape:offset" fill="none" stroke="url(#path6854_1_)" stroke-width="0.8" stroke-linecap="square" d="
			M9.312-33.688v2.375H10.5c0,0,1.171,0,4.5,0c1.414,0,2.766,0.498,3.75,1.5s1.562,2.479,1.562,4.312
			c0,2.476,1.176,4.566,2.75,5.969c1.592,1.418,3.546,2.219,5.438,2.219h3c0.449,0,0.812,0.363,0.812,0.812v1.438l4.812-3.438
			l-4.812-3.438v1.438c0,0.449-0.363,0.812-0.812,0.812h-3c-1.18,0-2.623-0.565-3.812-1.625c-1.159-1.033-2-2.467-2-4.188
			c0-4.797-3.601-8.188-7.688-8.188c-3.329,0-4.5,0-4.5,0H9.312z"/>
		
			<radialGradient id="path6876_1_" cx="13.0781" cy="168.3359" r="3.1719" gradientTransform="matrix(1 0 0 -2.2315 8.5 350.1284)" gradientUnits="userSpaceOnUse">
			<stop  offset="0" style="stop-color:#000000"/>
			<stop  offset="1" style="stop-color:#000000;stop-opacity:0"/>
		</radialGradient>
		<path id="path6876" opacity="0.6" fill="url(#path6876_1_)" enable-background="new    " d="M20.969-32.594
			c-1.15,1.183-2.069,2.667-2.562,4.406c0.401,0.681,0.625,1.562,0.625,2.688c0,2.888,1.379,5.295,3.188,6.906
			c0.062,0.055,0.125,0.103,0.188,0.156c1.127-1.299,1.956-2.918,2.344-4.719c-0.479-0.68-0.781-1.451-0.781-2.344
			C23.969-28.4,22.795-30.894,20.969-32.594z"/>
		
			<radialGradient id="path6784_1_" cx="-188.5205" cy="163.4365" r="15.5" gradientTransform="matrix(4.096 0 0 -2.2938 798.5073 355.8482)" gradientUnits="userSpaceOnUse">
			<stop  offset="0" style="stop-color:#EEEEEC"/>
			<stop  offset="1" style="stop-color:#92948F"/>
		</radialGradient>
		
			<path id="path6784" sodipodi:nodetypes="cccsssccccsssccccc" fill="url(#path6784_1_)" stroke="#555753" stroke-linecap="square" d="
			M31.5-37.5v3h-3c-2.122,0-4.247,0.903-5.969,2.438S19.5-28.235,19.5-25.5c0,3.336-2.039,5-4.5,5c-3.329,0-4.5,0-4.5,0h-2v4h2
			c0,0,1.171,0,4.5,0c4.539,0,8.5-3.791,8.5-9c0-1.465,0.69-2.678,1.719-3.594S27.622-30.5,28.5-30.5h3v3l7-5L31.5-37.5z"/>
		
			<path id="path6816" inkscape:original="M 31.5 12.5 L 31.5 15.5 L 28.5 15.5 C 26.377778 15.500001 24.253022 16.403558 22.53125 17.9375 C 20.809478 19.471442 19.5 21.765079 19.5 24.5 C 19.5 27.83603 17.460874 29.5 15 29.5 C 11.671618 29.5 10.5 29.5 10.5 29.5 L 8.5 29.5 L 8.5 33.5 L 10.5 33.5 C 10.5 33.5 11.671618 33.5 15 33.5 C 19.539126 33.5 23.5 29.70856 23.5 24.5 C 23.5 23.034921 24.190522 21.822308 25.21875 20.90625 C 26.246978 19.990192 27.622222 19.5 28.5 19.5 L 31.5 19.5 L 31.5 22.5 L 38.5 17.5 L 31.5 12.5 z " inkscape:radius="-0.85253638" sodipodi:type="inkscape:offset" fill="none" stroke="#FFFFFF" stroke-width="0.8" stroke-linecap="square" d="
			M32.344-35.844v1.344c-0.005,0.464-0.38,0.839-0.844,0.844h-3c-1.881,0-3.82,0.806-5.406,2.219
			c-1.567,1.396-2.75,3.475-2.75,5.938c0,1.842-0.571,3.333-1.562,4.344s-2.359,1.5-3.781,1.5c-3.329,0-4.5,0-4.5,0H9.344v2.312
			H10.5c0,0,1.171,0,4.5,0c4.064,0,7.656-3.38,7.656-8.156c0-1.733,0.834-3.18,2-4.219c1.197-1.067,2.648-1.625,3.844-1.625h3
			c0.464,0.005,0.839,0.38,0.844,0.844v1.344l4.688-3.344L32.344-35.844z"/>
		
			<linearGradient id="path6820_1_" gradientUnits="userSpaceOnUse" x1="-16.2476" y1="-65.2588" x2="44.7543" y2="-34.7579" gradientTransform="matrix(1 0 0 -1 8.5 -76)">
			<stop  offset="0" style="stop-color:#FFFFFF"/>
			<stop  offset="0.2097" style="stop-color:#FFFFFF;stop-opacity:0"/>
			<stop  offset="0.3494" style="stop-color:#FFFFFF;stop-opacity:0.8107"/>
			<stop  offset="0.4285" style="stop-color:#FFFFFF;stop-opacity:0"/>
			<stop  offset="0.5213" style="stop-color:#FFFFFF"/>
			<stop  offset="0.5575" style="stop-color:#FFFFFF;stop-opacity:0"/>
			<stop  offset="0.71" style="stop-color:#FFFFFF;stop-opacity:0.568"/>
			<stop  offset="0.7439" style="stop-color:#FFFFFF;stop-opacity:0"/>
			<stop  offset="1" style="stop-color:#FFFFFF;stop-opacity:0"/>
		</linearGradient>
		
			<path id="path6820" inkscape:original="M 31.5 12.5 L 31.5 15.5 L 28.5 15.5 C 26.377778 15.500001 24.253022 16.403558 22.53125 17.9375 C 20.809478 19.471442 19.5 21.765079 19.5 24.5 C 19.5 27.83603 17.460874 29.5 15 29.5 C 11.671618 29.5 10.5 29.5 10.5 29.5 L 8.5 29.5 L 8.5 33.5 L 10.5 33.5 C 10.5 33.5 11.671618 33.5 15 33.5 C 19.539126 33.5 23.5 29.70856 23.5 24.5 C 23.5 23.034921 24.190522 21.822308 25.21875 20.90625 C 26.246978 19.990192 27.622222 19.5 28.5 19.5 L 31.5 19.5 L 31.5 22.5 L 38.5 17.5 L 31.5 12.5 z " inkscape:radius="-0.44600242" sodipodi:type="inkscape:offset" opacity="0.4" fill="url(#path6820_1_)" enable-background="new    " d="
			M31.938-36.625v2.125c-0.004,0.24-0.197,0.433-0.438,0.438h-3c-1.996,0-4.037,0.873-5.688,2.344
			c-1.641,1.462-2.875,3.626-2.875,6.219c0,1.759-0.529,3.137-1.438,4.062s-2.169,1.375-3.5,1.375c-3.329,0-4.5,0-4.5,0H8.938v3.125
			H10.5c0,0,1.171,0,4.5,0c4.291,0,8.062-3.58,8.062-8.562c0-1.605,0.775-2.958,1.875-3.938c1.117-0.995,2.519-1.5,3.562-1.5h3
			c0.24,0.004,0.434,0.198,0.438,0.438v2.125l5.781-4.125L31.938-36.625z"/>
	</g>
</g>
</svg>
