<?xml version="1.0"?>
<svg width="48" height="48" xmlns="http://www.w3.org/2000/svg" xmlns:xlink="http://www.w3.org/1999/xlink">
<defs>
<linearGradient id="b" gradientUnits="userSpaceOnUse">
<stop offset="0" stop-color="#929470"/>
<stop offset=".265" stop-color="#fcffc1"/>
<stop offset=".632" stop-color="#f3f5ba"/>
<stop offset="1" stop-color="#929470"/>
</linearGradient>
<linearGradient id="c" gradientUnits="userSpaceOnUse">
<stop offset="0" stop-color="#ffe708"/>
<stop offset=".412" stop-color="#ffd604" stop-opacity=".44"/>
<stop offset="1" stop-color="#4c3e1c" stop-opacity=".48"/>
</linearGradient>
<linearGradient id="a" gradientUnits="userSpaceOnUse" x1="19" x2="30.17" y1="37.23" y2="37.23">
<stop offset=".006" stop-color="#a3a349"/>
<stop offset=".021" stop-color="#acac54"/>
<stop offset=".066" stop-color="#c1c172"/>
<stop offset=".115" stop-color="#d4d68e"/>
<stop offset=".168" stop-color="#e2e4a6"/>
<stop offset=".227" stop-color="#edf0b8"/>
<stop offset=".296" stop-color="#f3f6c3"/>
<stop offset=".405" stop-color="#f5f8c7"/>
<stop offset=".524" stop-color="#eef0be"/>
<stop offset=".667" stop-color="#dbdda9"/>
<stop offset=".821" stop-color="#bebd88"/>
<stop offset=".983" stop-color="#989564"/>
<stop offset="1" stop-color="#949160"/>
</linearGradient>
<radialGradient id="e" cx="14.77" cy="74.21" gradientTransform="scale(1.764 .5668)" gradientUnits="userSpaceOnUse" r="7.83">
<stop offset="0" stop-opacity=".52"/>
<stop offset=".552" stop-opacity=".14"/>
<stop offset="1" stop-opacity="0"/>
</radialGradient>
<linearGradient id="j" gradientTransform="scale(1.026 .9742)" x1="-22.87" x2="-4.39" xlink:href="#a" y1="38.68" y2="38.68"/>
<linearGradient id="k" gradientTransform="scale(1.026 .9742)" x1="-10.48" x2="-23.85" xlink:href="#b" y1="39.03" y2="39.14"/>
<linearGradient id="f" gradientTransform="matrix(1.763 0 0 1.537 -19.73 -23.88)" gradientUnits="userSpaceOnUse" x1="23.12" x2="26.48" y1="43.17" y2="43.17">
<stop offset=".006" stop-color="#686868"/>
<stop offset=".03" stop-color="#777"/>
<stop offset=".084" stop-color="#929292"/>
<stop offset=".142" stop-color="#a7a7a7"/>
<stop offset=".207" stop-color="#b6b6b6"/>
<stop offset=".285" stop-color="#bebebe"/>
<stop offset=".405" stop-color="#c1c1c1"/>
<stop offset=".496" stop-color="#bcbcbc"/>
<stop offset=".606" stop-color="#adadad"/>
<stop offset=".725" stop-color="#959595"/>
<stop offset=".85" stop-color="#747474"/>
<stop offset=".979" stop-color="#494949"/>
<stop offset="1" stop-color="#414141"/>
</linearGradient>
<linearGradient id="v" gradientTransform="matrix(1.088 0 0 .9166 .7 -1.57)" gradientUnits="userSpaceOnUse" x1="17" x2="32.1" y1="10.06" y2="36.73">
<stop offset="0" stop-color="#fff"/>
<stop offset="1" stop-color="#fff" stop-opacity="0"/>
</linearGradient>
<linearGradient id="r" gradientTransform="matrix(.8534 0 0 .9753 1.89 1.66)" gradientUnits="userSpaceOnUse" x1="37.94" x2="-5.25" y1="16.65" y2="3.86">
<stop offset="0" stop-color="#fffff1"/>
<stop offset="1" stop-color="#f1f3ff" stop-opacity="0"/>
</linearGradient>
<radialGradient id="p" cx="68.14" cy="29.87" gradientTransform="matrix(.5262 0 0 .7583 -9.57 5.12)" gradientUnits="userSpaceOnUse" r="33.93">
<stop offset="0" stop-color="#fff" stop-opacity=".18"/>
<stop offset=".882" stop-color="#ffe300"/>
<stop offset="1" stop-color="#ffb900"/>
</radialGradient>
<linearGradient id="n" gradientTransform="matrix(1.53 0 0 .5438 1.03 1.66)" gradientUnits="userSpaceOnUse" x1="17.88" x2="11.91" y1="55.36" y2="54.86">
<stop offset="0" stop-color="#d6d87b"/>
<stop offset="1" stop-color="#fbe843"/>
</linearGradient>
<linearGradient id="o" gradientTransform="matrix(-.8645 -.0434 .1809 -.9537 1.03 1.66)" gradientUnits="userSpaceOnUse" x1="-29.01" x2="-37.64" y1="-29.8" y2="-29.6">
<stop offset="0" stop-color="#dcd763"/>
<stop offset=".265" stop-color="#d9bb05"/>
<stop offset=".632" stop-color="#dcd763"/>
<stop offset="1" stop-color="#c7a107"/>
</linearGradient>
<linearGradient id="u" gradientTransform="matrix(1.861 0 0 .467 1.25 5.47)" gradientUnits="userSpaceOnUse" x1="14.64" x2="9.37" y1="31.5" y2="32.25">
<stop offset="0" stop-color="#ffb812"/>
<stop offset="1" stop-color="#ffb812" stop-opacity="0"/>
</linearGradient>
<linearGradient id="t" gradientTransform="matrix(.59 0 0 1.473 .9 4.89)" x1="30.62" x2="32.17" xlink:href="#c" y1="10.31" y2="18.16"/>
<linearGradient id="s" gradientTransform="matrix(-.59 0 0 1.473 47.1 4.78)" x1="30.62" x2="32.17" xlink:href="#c" y1="10.31" y2="18.16"/>
<radialGradient id="d" cx="27.75" cy="18.63" gradientUnits="userSpaceOnUse" r="15.06">
<stop offset="0" stop-color="#ffd800" stop-opacity="0"/>
<stop offset=".5" stop-color="#ffd800" stop-opacity=".33"/>
<stop offset="1" stop-color="#ffd800" stop-opacity="0"/>
</radialGradient>
<linearGradient id="l" gradientTransform="matrix(.6119 -.1312 .0619 .7364 30.37 9.26)" x1="-22.87" x2="-4.39" xlink:href="#a" y1="38.68" y2="38.68"/>
<linearGradient id="m" gradientTransform="matrix(.6119 -.1312 .0619 .7364 30.37 9.26)" x1="-10.48" x2="-23.85" xlink:href="#b" y1="39.03" y2="39.14"/>
<linearGradient id="h" gradientTransform="matrix(.5604 .0297 -.1173 .6523 35.38 20.96)" x1="-22.87" x2="-4.39" xlink:href="#a" y1="38.68" y2="38.68"/>
<linearGradient id="i" gradientTransform="matrix(.5604 .0297 -.1173 .6523 35.38 20.96)" x1="-10.48" x2="-23.85" xlink:href="#b" y1="39.03" y2="39.14"/>
<linearGradient id="g" gradientTransform="matrix(.9917 0 0 .9909 -.41 1.01)" gradientUnits="userSpaceOnUse" x1="24.61" x2="24.61" y1="31.15" y2="26.74">
<stop offset="0" stop-color="#4c4428"/>
<stop offset="1" stop-color="#e7b600" stop-opacity="0"/>
</linearGradient>
<linearGradient id="q" gradientUnits="userSpaceOnUse" x1="23.41" x2="23.41" y1="2" y2="34.01">
<stop offset="0" stop-color="#ab8104"/>
<stop offset=".736" stop-color="#ab8104"/>
<stop offset="1" stop-color="#616471"/>
</linearGradient>
</defs>
<path d="m24 2.5c-7.5 0-13.5 5.9-13.5 13.2 0 7.5 5.5 8.3 5.5 11 0 3.3 3.2 6.9 8.4 6.8 5.7-.1 8-3.3 8-6.8 0-2.9 5.1-3 5.1-11 0-7.3-6-13.2-13.5-13.2z" fill="#fff"/>
<path d="m42.8 18.6a15.1 15.1 0 1 1 -30.1 0 15.1 15.1 0 1 1 30.1 0z" fill="url(#d)" transform="matrix(1.342 0 0 1.09 -13.23 -3.75)"/>
<path d="m39.9 42.1a13.8 4.4 0 1 1 -27.6 0 13.8 4.4 0 1 1 27.6 0z" fill="url(#e)" opacity=".8" transform="matrix(1.197 0 0 1.099 -6.2 -3.21)"/>
<path d="m21 40.5v1.4c0 1.4 1.4 2.6 3 2.6s3-1.2 3-2.6v-1.4z" fill="url(#f)" stroke="#565656"/>
<path d="m23.8 28.5c-3.2 0-6.9 1-4.9 2.8-.5.2-1.2.6-1.2 1.7.1.5.7.9 1.5 1.1-.9.7-1.5 1.3-1.5 1.9.1.6.7 1 1.4 1.2-.8.6-1.4 1.3-1.4 1.9.1 1 2.1 2 6.5 1.9 3.1-.1 5.8-.7 6-1.9.1-.4-.3-.9-.9-1.3.5-.4.8-.9.8-1.3-.1-.6-.6-.9-1.4-1.2.9-.6 1.4-1.3 1.4-1.9-.1-.6-.6-.9-1.4-1.1.9-.7 1.4-1.4 1.4-2-.1-.6-3.2-1.8-6.3-1.8z" fill="#aeae57" stroke="url(#g)" stroke-width="2"/>
<path d="m30.2 39.1c-.2 1.2-3.3 1.9-8.2 1.6-3.2-.1-3.3-1-3.1-2.2s2.9-2.1 6-1.9 5.5 1.3 5.3 2.5z" fill="url(#h)" stroke="url(#i)" stroke-width=".1"/>
<path d="m-3.5 27.2a10.3 3.3 0 1 1 -20.7 0 10.3 3.3 0 1 1 20.7 0z" fill="url(#j)" stroke="url(#k)" stroke-width=".13" transform="matrix(.5962 -.1278 .0636 .7559 30.37 15.41)"/>
<path d="m-3.5 27.2a10.3 3.3 0 1 1 -20.7 0 10.3 3.3 0 1 1 20.7 0z" fill="url(#j)" stroke="url(#k)" stroke-width=".13" transform="matrix(.5962 -.1278 .0636 .7559 30.37 12.33)"/>
<path d="m30 30.5c0 1.3-2.6 2.9-6 3.6s-6.2.2-6.3-1.2c-.2-1.3 2.2-2.9 5.6-3.1s6.7-.1 6.7.7z" fill="url(#l)" stroke="url(#m)" stroke-width=".1"/>
<path d="m21.5 35.53a1.1 1.1 0 1 1 -2.16 0 1.1 1.1 0 1 1 2.16 0z" fill="#fff"/>
<path d="m18.7 34.2c3.4.5 6.9-.1 9.8-1.9.8-.5.9-1.1 1.3-1.6-1.4 1.1-5 4.1-11.1 3.5z" fill-opacity=".23"/>
<path d="m21.5 38.51a1.1 1.1 0 1 1 -2.16 0 1.1 1.1 0 1 1 2.16 0z" fill="#fff"/>
<path d="m18.8 40.3c3.4.5 6.9-.1 9.8-1.9.8-.5.9-1.1 1.3-1.6-1.4 1.1-5 4.1-11.1 3.5zm.1-3.1c3.3.5 6.9-.1 9.7-1.9.8-.5 1-1.1 1.3-1.6-1.4 1.1-4.9 4.1-11 3.5z" fill-opacity=".23"/>
<path d="m18.5 31c0-.8 1.5-1.8 5.3-1.7 3.5 0 5.8.9 5.8 2.1 0 1.3-3.1 2.1-6.4 1.9-3.2-.1-4.7-1.1-4.7-2.3z" fill="url(#n)" stroke="url(#o)" stroke-width=".1"/>
<path d="m24 2.5c-7.5 0-13.5 5.9-13.5 13.2 0 7.5 5.5 8.3 5.5 11 0 3.3 3.2 6.9 8.4 6.8 5.7-.1 8-3.3 8-6.8 0-2.9 5.1-3 5.1-11 0-7.3-6-13.2-13.5-13.2z" fill="url(#p)" stroke="url(#q)"/>
<path d="M24 3.5c-7 0-12.6 5.6-12.6 12.3 0 7 5.1 7.8 5.1 10.3 0 3.1 3 6.5 7.9 6.3 5.3-.1 7.4-3.1 7.4-6.3 0-2.7 4.8-2.8 4.8-10.3C36.6 9.1 31 3.5 24 3.5z" fill="none" stroke="url(#r)" stroke-width=".92"/>
<path d="m29.5 19.1c.3.1.5.4.4.6l-3.6 10.8c-.1.3-.4.5-.7.4s-.5-.4-.4-.7l3.6-10.7c.1-.3.4-.5.7-.4z" fill="url(#s)"/>
<path d="m18.5 19.2c-.3.1-.5.4-.4.7l3.6 10.7c.1.3.4.5.7.4s.5-.4.4-.7l-3.6-10.7c-.1-.3-.4-.5-.7-.4z" fill="url(#t)"/>
<path d="M18.6 19.1c-.3.1-.4.2-.5.5 0 .2.1.4.3.5 0 0 1.7 1 4 1.5 2.2.5 5.1.6 7.3-1.5.2-.2.2-.4.2-.6s-.2-.3-.4-.4c-.2 0-.4 0-.6.2-1.8 1.8-4.2 1.8-6.3 1.3S19 19.2 19 19.2c-.2-.1-.3-.1-.4-.1z" fill="#ffd800" stroke="url(#u)" stroke-width=".2"/>
<path d="m24.3 5.2c-6 0-10.8 4-10.8 8.9 0 1.9.9 3.6 2.2 5.1 1.5.6 3.1 1.1 4.9 1.1 6 0 10.8-4 10.8-8.9 0-2-.9-3.7-2.2-5.2-1.5-.6-3.1-1-4.9-1z" fill="url(#v)" opacity=".6"/>
</svg>
